<svg width="1600" height="568" viewBox="0 0 1600 568" fill="none" xmlns="http://www.w3.org/2000/svg">
<rect width="1600" height="568" fill="white"/>
<path d="M388.253 444.18H381.413V453H371.933V444.18H349.313V437.64L369.113 411H379.313L360.953 436.26H372.233V428.4H381.413V436.26H388.253V444.18ZM426.153 453.72C422.673 453.72 419.573 452.86 416.853 451.14C414.133 449.42 411.993 446.94 410.433 443.7C408.913 440.42 408.153 436.52 408.153 432C408.153 427.48 408.913 423.6 410.433 420.36C411.993 417.08 414.133 414.58 416.853 412.86C419.573 411.14 422.673 410.28 426.153 410.28C429.633 410.28 432.733 411.14 435.453 412.86C438.173 414.58 440.293 417.08 441.813 420.36C443.373 423.6 444.153 427.48 444.153 432C444.153 436.52 443.373 440.42 441.813 443.7C440.293 446.94 438.173 449.42 435.453 451.14C432.733 452.86 429.633 453.72 426.153 453.72ZM426.153 445.5C428.713 445.5 430.713 444.4 432.153 442.2C433.633 440 434.373 436.6 434.373 432C434.373 427.4 433.633 424 432.153 421.8C430.713 419.6 428.713 418.5 426.153 418.5C423.633 418.5 421.633 419.6 420.153 421.8C418.713 424 417.993 427.4 417.993 432C417.993 436.6 418.713 440 420.153 442.2C421.633 444.4 423.633 445.5 426.153 445.5ZM467.909 428.1C471.589 428.7 474.409 430.08 476.369 432.24C478.329 434.36 479.309 437 479.309 440.16C479.309 442.6 478.669 444.86 477.389 446.94C476.109 448.98 474.149 450.62 471.509 451.86C468.909 453.1 465.709 453.72 461.909 453.72C458.949 453.72 456.029 453.34 453.149 452.58C450.309 451.78 447.889 450.66 445.889 449.22L449.669 441.78C451.269 442.98 453.109 443.92 455.189 444.6C457.309 445.24 459.469 445.56 461.669 445.56C464.109 445.56 466.029 445.1 467.429 444.18C468.829 443.22 469.529 441.88 469.529 440.16C469.529 436.72 466.909 435 461.669 435H457.229V428.58L465.869 418.8H447.989V411H477.389V417.3L467.909 428.1ZM516.15 411V417.3L500.55 453H489.99L505.05 418.92H491.13V425.76H482.49V411H516.15ZM558.529 411C562.249 411 565.469 411.62 568.189 412.86C570.949 414.1 573.069 415.86 574.549 418.14C576.029 420.42 576.769 423.12 576.769 426.24C576.769 429.32 576.029 432.02 574.549 434.34C573.069 436.62 570.949 438.38 568.189 439.62C565.469 440.82 562.249 441.42 558.529 441.42H550.069V453H540.349V411H558.529ZM557.989 433.5C560.909 433.5 563.129 432.88 564.649 431.64C566.169 430.36 566.929 428.56 566.929 426.24C566.929 423.88 566.169 422.08 564.649 420.84C563.129 419.56 560.909 418.92 557.989 418.92H550.069V433.5H557.989Z" fill="black"/>
<rect x="700" y="390" width="124" height="71" fill="#A56492"/>
<path d="M718.523 400.316V410H715.715V402.62H711.683V410H708.893V400.316H718.523ZM726.921 400.172C727.821 400.172 728.637 400.382 729.369 400.802C730.113 401.21 730.695 401.792 731.115 402.548C731.535 403.292 731.745 404.162 731.745 405.158C731.745 406.154 731.535 407.03 731.115 407.786C730.695 408.53 730.113 409.112 729.369 409.532C728.637 409.94 727.821 410.144 726.921 410.144C725.685 410.144 724.713 409.754 724.005 408.974V413.492H721.197V400.316H723.879V401.432C724.575 400.592 725.589 400.172 726.921 400.172ZM726.435 407.84C727.155 407.84 727.743 407.6 728.199 407.12C728.667 406.628 728.901 405.974 728.901 405.158C728.901 404.342 728.667 403.694 728.199 403.214C727.743 402.722 727.155 402.476 726.435 402.476C725.715 402.476 725.121 402.722 724.653 403.214C724.197 403.694 723.969 404.342 723.969 405.158C723.969 405.974 724.197 406.628 724.653 407.12C725.121 407.6 725.715 407.84 726.435 407.84ZM733.713 400.316H736.503V406.076L741.219 400.316H743.793V410H741.003V404.24L736.305 410H733.713V400.316ZM752.091 400.982C753.015 400.982 753.825 401.174 754.521 401.558C755.217 401.93 755.751 402.458 756.123 403.142C756.507 403.826 756.699 404.618 756.699 405.518C756.699 406.442 756.471 407.264 756.015 407.984C755.571 408.692 754.947 409.244 754.143 409.64C753.339 410.024 752.427 410.216 751.407 410.216C749.715 410.216 748.383 409.676 747.411 408.596C746.451 407.504 745.971 405.908 745.971 403.808C745.971 401.864 746.391 400.316 747.231 399.164C748.083 398 749.385 397.238 751.137 396.878L755.745 395.96L756.123 398.372L752.055 399.182C750.951 399.398 750.129 399.758 749.589 400.262C749.061 400.766 748.749 401.48 748.653 402.404C749.073 401.948 749.577 401.6 750.165 401.36C750.753 401.108 751.395 400.982 752.091 400.982ZM751.425 408.038C752.145 408.038 752.721 407.804 753.153 407.336C753.597 406.868 753.819 406.274 753.819 405.554C753.819 404.822 753.597 404.24 753.153 403.808C752.721 403.376 752.145 403.16 751.425 403.16C750.693 403.16 750.105 403.376 749.661 403.808C749.217 404.24 748.995 404.822 748.995 405.554C748.995 406.286 749.223 406.886 749.679 407.354C750.135 407.81 750.717 408.038 751.425 408.038ZM763.698 403.412C764.958 403.424 765.912 403.706 766.56 404.258C767.208 404.81 767.532 405.602 767.532 406.634C767.532 407.714 767.166 408.548 766.434 409.136C765.702 409.724 764.664 410.018 763.32 410.018L758.604 410V400.316H761.394V403.412H763.698ZM768.576 400.316H771.366V410H768.576V400.316ZM763.068 408.02C763.608 408.032 764.022 407.918 764.31 407.678C764.598 407.438 764.742 407.078 764.742 406.598C764.742 406.13 764.598 405.788 764.31 405.572C764.034 405.356 763.62 405.242 763.068 405.23L761.394 405.212V408.02H763.068ZM783.361 400.316V410H780.553V402.62H777.493L777.403 404.33C777.355 405.602 777.235 406.658 777.043 407.498C776.851 408.338 776.539 408.998 776.107 409.478C775.675 409.958 775.075 410.198 774.307 410.198C773.899 410.198 773.413 410.126 772.849 409.982L772.993 407.678C773.185 407.702 773.323 407.714 773.407 407.714C773.827 407.714 774.139 407.564 774.343 407.264C774.559 406.952 774.703 406.562 774.775 406.094C774.847 405.614 774.901 404.984 774.937 404.204L775.081 400.316H783.361ZM791.299 403.412C792.559 403.424 793.525 403.712 794.197 404.276C794.869 404.828 795.205 405.614 795.205 406.634C795.205 407.702 794.827 408.536 794.071 409.136C793.327 409.724 792.277 410.018 790.921 410.018L786.061 410V400.316H788.851V403.412H791.299ZM790.669 408.02C791.209 408.032 791.623 407.918 791.911 407.678C792.199 407.438 792.343 407.078 792.343 406.598C792.343 406.13 792.199 405.788 791.911 405.572C791.635 405.356 791.221 405.242 790.669 405.23L788.851 405.212V408.02H790.669ZM806.665 410.144C805.633 410.144 804.703 409.934 803.875 409.514C803.059 409.082 802.417 408.488 801.949 407.732C801.493 406.976 801.265 406.118 801.265 405.158C801.265 404.198 801.493 403.34 801.949 402.584C802.417 401.828 803.059 401.24 803.875 400.82C804.703 400.388 805.633 400.172 806.665 400.172C807.685 400.172 808.573 400.388 809.329 400.82C810.097 401.24 810.655 401.846 811.003 402.638L808.825 403.808C808.321 402.92 807.595 402.476 806.647 402.476C805.915 402.476 805.309 402.716 804.829 403.196C804.349 403.676 804.109 404.33 804.109 405.158C804.109 405.986 804.349 406.64 804.829 407.12C805.309 407.6 805.915 407.84 806.647 407.84C807.607 407.84 808.333 407.396 808.825 406.508L811.003 407.696C810.655 408.464 810.097 409.064 809.329 409.496C808.573 409.928 807.685 410.144 806.665 410.144ZM733.31 432.144C732.29 432.144 731.372 431.934 730.556 431.514C729.752 431.082 729.122 430.488 728.666 429.732C728.21 428.976 727.982 428.118 727.982 427.158C727.982 426.198 728.21 425.34 728.666 424.584C729.122 423.828 729.752 423.24 730.556 422.82C731.372 422.388 732.29 422.172 733.31 422.172C734.33 422.172 735.242 422.388 736.046 422.82C736.85 423.24 737.48 423.828 737.936 424.584C738.392 425.34 738.62 426.198 738.62 427.158C738.62 428.118 738.392 428.976 737.936 429.732C737.48 430.488 736.85 431.082 736.046 431.514C735.242 431.934 734.33 432.144 733.31 432.144ZM733.31 429.84C734.03 429.84 734.618 429.6 735.074 429.12C735.542 428.628 735.776 427.974 735.776 427.158C735.776 426.342 735.542 425.694 735.074 425.214C734.618 424.722 734.03 424.476 733.31 424.476C732.59 424.476 731.996 424.722 731.528 425.214C731.06 425.694 730.826 426.342 730.826 427.158C730.826 427.974 731.06 428.628 731.528 429.12C731.996 429.6 732.59 429.84 733.31 429.84ZM751.265 429.696V434.088H748.655V432H741.851V434.088H739.241V429.696H739.637C740.237 429.684 740.651 429.33 740.879 428.634C741.107 427.938 741.251 426.948 741.311 425.664L741.437 422.316H749.879V429.696H751.265ZM743.849 425.862C743.813 426.846 743.735 427.65 743.615 428.274C743.507 428.898 743.297 429.372 742.985 429.696H747.071V424.62H743.903L743.849 425.862ZM753.032 422.316H755.822V426.096H760.034V422.316H762.842V432H760.034V428.382H755.822V432H753.032V422.316ZM770.066 432.144C769.046 432.144 768.128 431.934 767.312 431.514C766.508 431.082 765.878 430.488 765.422 429.732C764.966 428.976 764.738 428.118 764.738 427.158C764.738 426.198 764.966 425.34 765.422 424.584C765.878 423.828 766.508 423.24 767.312 422.82C768.128 422.388 769.046 422.172 770.066 422.172C771.086 422.172 771.998 422.388 772.802 422.82C773.606 423.24 774.236 423.828 774.692 424.584C775.148 425.34 775.376 426.198 775.376 427.158C775.376 428.118 775.148 428.976 774.692 429.732C774.236 430.488 773.606 431.082 772.802 431.514C771.998 431.934 771.086 432.144 770.066 432.144ZM770.066 429.84C770.786 429.84 771.374 429.6 771.83 429.12C772.298 428.628 772.532 427.974 772.532 427.158C772.532 426.342 772.298 425.694 771.83 425.214C771.374 424.722 770.786 424.476 770.066 424.476C769.346 424.476 768.752 424.722 768.284 425.214C767.816 425.694 767.582 426.342 767.582 427.158C767.582 427.974 767.816 428.628 768.284 429.12C768.752 429.6 769.346 429.84 770.066 429.84ZM785.065 424.62H780.097V432H777.307V422.316H785.065V424.62ZM790.685 432.144C789.665 432.144 788.747 431.934 787.931 431.514C787.127 431.082 786.497 430.488 786.041 429.732C785.585 428.976 785.357 428.118 785.357 427.158C785.357 426.198 785.585 425.34 786.041 424.584C786.497 423.828 787.127 423.24 787.931 422.82C788.747 422.388 789.665 422.172 790.685 422.172C791.705 422.172 792.617 422.388 793.421 422.82C794.225 423.24 794.855 423.828 795.311 424.584C795.767 425.34 795.995 426.198 795.995 427.158C795.995 428.118 795.767 428.976 795.311 429.732C794.855 430.488 794.225 431.082 793.421 431.514C792.617 431.934 791.705 432.144 790.685 432.144ZM790.685 429.84C791.405 429.84 791.993 429.6 792.449 429.12C792.917 428.628 793.151 427.974 793.151 427.158C793.151 426.342 792.917 425.694 792.449 425.214C791.993 424.722 791.405 424.476 790.685 424.476C789.965 424.476 789.371 424.722 788.903 425.214C788.435 425.694 788.201 426.342 788.201 427.158C788.201 427.974 788.435 428.628 788.903 429.12C789.371 429.6 789.965 429.84 790.685 429.84ZM737.552 448.96C738.128 449.14 738.572 449.416 738.884 449.788C739.208 450.16 739.37 450.604 739.37 451.12C739.37 451.732 739.16 452.272 738.74 452.74C738.32 453.196 737.744 453.55 737.012 453.802C736.28 454.054 735.452 454.18 734.528 454.18C733.772 454.18 733.028 454.102 732.296 453.946C731.564 453.79 730.886 453.556 730.262 453.244L731.018 451.282C732.038 451.774 733.166 452.02 734.402 452.02C735.062 452.02 735.578 451.924 735.95 451.732C736.334 451.528 736.526 451.246 736.526 450.886C736.526 450.574 736.394 450.34 736.13 450.184C735.866 450.016 735.482 449.932 734.978 449.932H732.998V448.186H734.726C735.218 448.186 735.596 448.108 735.86 447.952C736.124 447.796 736.256 447.568 736.256 447.268C736.256 446.956 736.088 446.716 735.752 446.548C735.428 446.38 734.96 446.296 734.348 446.296C733.412 446.296 732.392 446.518 731.288 446.962L730.604 445.018C731.948 444.43 733.256 444.136 734.528 444.136C735.404 444.136 736.184 444.244 736.868 444.46C737.564 444.676 738.11 444.994 738.506 445.414C738.902 445.822 739.1 446.302 739.1 446.854C739.1 447.31 738.962 447.724 738.686 448.096C738.41 448.456 738.032 448.744 737.552 448.96ZM745.175 444.172C746.675 444.172 747.827 444.532 748.631 445.252C749.435 445.96 749.837 447.034 749.837 448.474V454H747.209V452.794C746.681 453.694 745.697 454.144 744.257 454.144C743.513 454.144 742.865 454.018 742.312 453.766C741.773 453.514 741.359 453.166 741.071 452.722C740.783 452.278 740.639 451.774 740.639 451.21C740.639 450.31 740.975 449.602 741.647 449.086C742.331 448.57 743.381 448.312 744.797 448.312H747.029C747.029 447.7 746.843 447.232 746.471 446.908C746.099 446.572 745.541 446.404 744.797 446.404C744.281 446.404 743.771 446.488 743.267 446.656C742.775 446.812 742.355 447.028 742.007 447.304L740.999 445.342C741.527 444.97 742.157 444.682 742.889 444.478C743.633 444.274 744.395 444.172 745.175 444.172ZM744.959 452.254C745.439 452.254 745.865 452.146 746.237 451.93C746.609 451.702 746.873 451.372 747.029 450.94V449.95H745.103C743.951 449.95 743.375 450.328 743.375 451.084C743.375 451.444 743.513 451.732 743.789 451.948C744.077 452.152 744.467 452.254 744.959 452.254ZM756.542 450.328H755.084V454H752.276V444.316H755.084V448.078H756.596L759.224 444.316H762.212L758.828 448.96L762.446 454H759.134L756.542 450.328ZM767.411 444.172C768.911 444.172 770.063 444.532 770.867 445.252C771.671 445.96 772.073 447.034 772.073 448.474V454H769.445V452.794C768.917 453.694 767.933 454.144 766.493 454.144C765.749 454.144 765.101 454.018 764.549 453.766C764.009 453.514 763.595 453.166 763.307 452.722C763.019 452.278 762.875 451.774 762.875 451.21C762.875 450.31 763.211 449.602 763.883 449.086C764.567 448.57 765.617 448.312 767.033 448.312H769.265C769.265 447.7 769.079 447.232 768.707 446.908C768.335 446.572 767.777 446.404 767.033 446.404C766.517 446.404 766.007 446.488 765.503 446.656C765.011 446.812 764.591 447.028 764.243 447.304L763.235 445.342C763.763 444.97 764.393 444.682 765.125 444.478C765.869 444.274 766.631 444.172 767.411 444.172ZM767.195 452.254C767.675 452.254 768.101 452.146 768.473 451.93C768.845 451.702 769.109 451.372 769.265 450.94V449.95H767.339C766.187 449.95 765.611 450.328 765.611 451.084C765.611 451.444 765.749 451.732 766.025 451.948C766.313 452.152 766.703 452.254 767.195 452.254ZM780.706 448.96C781.282 449.14 781.726 449.416 782.038 449.788C782.362 450.16 782.524 450.604 782.524 451.12C782.524 451.732 782.314 452.272 781.894 452.74C781.474 453.196 780.898 453.55 780.166 453.802C779.434 454.054 778.606 454.18 777.682 454.18C776.926 454.18 776.182 454.102 775.45 453.946C774.718 453.79 774.04 453.556 773.416 453.244L774.172 451.282C775.192 451.774 776.32 452.02 777.556 452.02C778.216 452.02 778.732 451.924 779.104 451.732C779.488 451.528 779.68 451.246 779.68 450.886C779.68 450.574 779.548 450.34 779.284 450.184C779.02 450.016 778.636 449.932 778.132 449.932H776.152V448.186H777.88C778.372 448.186 778.75 448.108 779.014 447.952C779.278 447.796 779.41 447.568 779.41 447.268C779.41 446.956 779.242 446.716 778.906 446.548C778.582 446.38 778.114 446.296 777.502 446.296C776.566 446.296 775.546 446.518 774.442 446.962L773.758 445.018C775.102 444.43 776.41 444.136 777.682 444.136C778.558 444.136 779.338 444.244 780.022 444.46C780.718 444.676 781.264 444.994 781.66 445.414C782.056 445.822 782.254 446.302 782.254 446.854C782.254 447.31 782.116 447.724 781.84 448.096C781.564 448.456 781.186 448.744 780.706 448.96ZM788.329 444.172C789.829 444.172 790.981 444.532 791.785 445.252C792.589 445.96 792.991 447.034 792.991 448.474V454H790.363V452.794C789.835 453.694 788.851 454.144 787.411 454.144C786.667 454.144 786.019 454.018 785.467 453.766C784.927 453.514 784.513 453.166 784.225 452.722C783.937 452.278 783.793 451.774 783.793 451.21C783.793 450.31 784.129 449.602 784.801 449.086C785.485 448.57 786.535 448.312 787.951 448.312H790.183C790.183 447.7 789.997 447.232 789.625 446.908C789.253 446.572 788.695 446.404 787.951 446.404C787.435 446.404 786.925 446.488 786.421 446.656C785.929 446.812 785.509 447.028 785.161 447.304L784.153 445.342C784.681 444.97 785.311 444.682 786.043 444.478C786.787 444.274 787.549 444.172 788.329 444.172ZM788.113 452.254C788.593 452.254 789.019 452.146 789.391 451.93C789.763 451.702 790.027 451.372 790.183 450.94V449.95H788.257C787.105 449.95 786.529 450.328 786.529 451.084C786.529 451.444 786.667 451.732 786.943 451.948C787.231 452.152 787.621 452.254 788.113 452.254Z" fill="white"/>
<line x1="347" y1="373" x2="824" y2="373" stroke="#A56492" stroke-width="4"/>
<path d="M369.198 320.1C372.878 320.7 375.698 322.08 377.658 324.24C379.618 326.36 380.598 329 380.598 332.16C380.598 334.6 379.958 336.86 378.678 338.94C377.398 340.98 375.438 342.62 372.798 343.86C370.198 345.1 366.998 345.72 363.198 345.72C360.238 345.72 357.318 345.34 354.438 344.58C351.598 343.78 349.178 342.66 347.178 341.22L350.958 333.78C352.558 334.98 354.398 335.92 356.478 336.6C358.598 337.24 360.758 337.56 362.958 337.56C365.398 337.56 367.318 337.1 368.718 336.18C370.118 335.22 370.818 333.88 370.818 332.16C370.818 328.72 368.198 327 362.958 327H358.518V320.58L367.158 310.8H349.278V303H378.678V309.3L369.198 320.1ZM403.086 345.72C399.606 345.72 396.506 344.86 393.786 343.14C391.066 341.42 388.926 338.94 387.366 335.7C385.846 332.42 385.086 328.52 385.086 324C385.086 319.48 385.846 315.6 387.366 312.36C388.926 309.08 391.066 306.58 393.786 304.86C396.506 303.14 399.606 302.28 403.086 302.28C406.566 302.28 409.666 303.14 412.386 304.86C415.106 306.58 417.226 309.08 418.746 312.36C420.306 315.6 421.086 319.48 421.086 324C421.086 328.52 420.306 332.42 418.746 335.7C417.226 338.94 415.106 341.42 412.386 343.14C409.666 344.86 406.566 345.72 403.086 345.72ZM403.086 337.5C405.646 337.5 407.646 336.4 409.086 334.2C410.566 332 411.306 328.6 411.306 324C411.306 319.4 410.566 316 409.086 313.8C407.646 311.6 405.646 310.5 403.086 310.5C400.566 310.5 398.566 311.6 397.086 313.8C395.646 316 394.926 319.4 394.926 324C394.926 328.6 395.646 332 397.086 334.2C398.566 336.4 400.566 337.5 403.086 337.5ZM443.809 345.72C440.329 345.72 437.229 344.86 434.509 343.14C431.789 341.42 429.649 338.94 428.089 335.7C426.569 332.42 425.809 328.52 425.809 324C425.809 319.48 426.569 315.6 428.089 312.36C429.649 309.08 431.789 306.58 434.509 304.86C437.229 303.14 440.329 302.28 443.809 302.28C447.289 302.28 450.389 303.14 453.109 304.86C455.829 306.58 457.949 309.08 459.469 312.36C461.029 315.6 461.809 319.48 461.809 324C461.809 328.52 461.029 332.42 459.469 335.7C457.949 338.94 455.829 341.42 453.109 343.14C450.389 344.86 447.289 345.72 443.809 345.72ZM443.809 337.5C446.369 337.5 448.369 336.4 449.809 334.2C451.289 332 452.029 328.6 452.029 324C452.029 319.4 451.289 316 449.809 313.8C448.369 311.6 446.369 310.5 443.809 310.5C441.289 310.5 439.289 311.6 437.809 313.8C436.369 316 435.649 319.4 435.649 324C435.649 328.6 436.369 332 437.809 334.2C439.289 336.4 441.289 337.5 443.809 337.5ZM501.524 345.72C498.044 345.72 494.944 344.86 492.224 343.14C489.504 341.42 487.364 338.94 485.804 335.7C484.284 332.42 483.524 328.52 483.524 324C483.524 319.48 484.284 315.6 485.804 312.36C487.364 309.08 489.504 306.58 492.224 304.86C494.944 303.14 498.044 302.28 501.524 302.28C505.004 302.28 508.104 303.14 510.824 304.86C513.544 306.58 515.664 309.08 517.184 312.36C518.744 315.6 519.524 319.48 519.524 324C519.524 328.52 518.744 332.42 517.184 335.7C515.664 338.94 513.544 341.42 510.824 343.14C508.104 344.86 505.004 345.72 501.524 345.72ZM501.524 337.5C504.084 337.5 506.084 336.4 507.524 334.2C509.004 332 509.744 328.6 509.744 324C509.744 319.4 509.004 316 507.524 313.8C506.084 311.6 504.084 310.5 501.524 310.5C499.004 310.5 497.004 311.6 495.524 313.8C494.084 316 493.364 319.4 493.364 324C493.364 328.6 494.084 332 495.524 334.2C497.004 336.4 499.004 337.5 501.524 337.5ZM542.246 345.72C538.766 345.72 535.666 344.86 532.946 343.14C530.226 341.42 528.086 338.94 526.526 335.7C525.006 332.42 524.246 328.52 524.246 324C524.246 319.48 525.006 315.6 526.526 312.36C528.086 309.08 530.226 306.58 532.946 304.86C535.666 303.14 538.766 302.28 542.246 302.28C545.726 302.28 548.826 303.14 551.546 304.86C554.266 306.58 556.386 309.08 557.906 312.36C559.466 315.6 560.246 319.48 560.246 324C560.246 328.52 559.466 332.42 557.906 335.7C556.386 338.94 554.266 341.42 551.546 343.14C548.826 344.86 545.726 345.72 542.246 345.72ZM542.246 337.5C544.806 337.5 546.806 336.4 548.246 334.2C549.726 332 550.466 328.6 550.466 324C550.466 319.4 549.726 316 548.246 313.8C546.806 311.6 544.806 310.5 542.246 310.5C539.726 310.5 537.726 311.6 536.246 313.8C534.806 316 534.086 319.4 534.086 324C534.086 328.6 534.806 332 536.246 334.2C537.726 336.4 539.726 337.5 542.246 337.5ZM582.969 345.72C579.489 345.72 576.389 344.86 573.669 343.14C570.949 341.42 568.809 338.94 567.249 335.7C565.729 332.42 564.969 328.52 564.969 324C564.969 319.48 565.729 315.6 567.249 312.36C568.809 309.08 570.949 306.58 573.669 304.86C576.389 303.14 579.489 302.28 582.969 302.28C586.449 302.28 589.549 303.14 592.269 304.86C594.989 306.58 597.109 309.08 598.629 312.36C600.189 315.6 600.969 319.48 600.969 324C600.969 328.52 600.189 332.42 598.629 335.7C597.109 338.94 594.989 341.42 592.269 343.14C589.549 344.86 586.449 345.72 582.969 345.72ZM582.969 337.5C585.529 337.5 587.529 336.4 588.969 334.2C590.449 332 591.189 328.6 591.189 324C591.189 319.4 590.449 316 588.969 313.8C587.529 311.6 585.529 310.5 582.969 310.5C580.449 310.5 578.449 311.6 576.969 313.8C575.529 316 574.809 319.4 574.809 324C574.809 328.6 575.529 332 576.969 334.2C578.449 336.4 580.449 337.5 582.969 337.5ZM643.744 303C647.464 303 650.684 303.62 653.404 304.86C656.164 306.1 658.284 307.86 659.764 310.14C661.244 312.42 661.984 315.12 661.984 318.24C661.984 321.32 661.244 324.02 659.764 326.34C658.284 328.62 656.164 330.38 653.404 331.62C650.684 332.82 647.464 333.42 643.744 333.42H635.284V345H625.564V303H643.744ZM643.204 325.5C646.124 325.5 648.344 324.88 649.864 323.64C651.384 322.36 652.144 320.56 652.144 318.24C652.144 315.88 651.384 314.08 649.864 312.84C648.344 311.56 646.124 310.92 643.204 310.92H635.284V325.5H643.204Z" fill="black"/>
<rect x="695" y="290" width="129" height="63" fill="#A56492"/>
<path d="M720.506 313.328H719.156V317H716.384V313.328H715.034L712.982 317H709.67L712.712 311.996L709.886 307.316H712.856L714.998 311.078H716.384V307.316H719.156V311.078H720.524L722.684 307.316H725.654L722.828 311.996L725.888 317H722.558L720.506 313.328ZM736.462 312.194C736.462 312.23 736.444 312.482 736.408 312.95H729.082C729.214 313.55 729.526 314.024 730.018 314.372C730.51 314.72 731.122 314.894 731.854 314.894C732.358 314.894 732.802 314.822 733.186 314.678C733.582 314.522 733.948 314.282 734.284 313.958L735.778 315.578C734.866 316.622 733.534 317.144 731.782 317.144C730.69 317.144 729.724 316.934 728.884 316.514C728.044 316.082 727.396 315.488 726.94 314.732C726.484 313.976 726.256 313.118 726.256 312.158C726.256 311.21 726.478 310.358 726.922 309.602C727.378 308.834 727.996 308.24 728.776 307.82C729.568 307.388 730.45 307.172 731.422 307.172C732.37 307.172 733.228 307.376 733.996 307.784C734.764 308.192 735.364 308.78 735.796 309.548C736.24 310.304 736.462 311.186 736.462 312.194ZM731.44 309.296C730.804 309.296 730.27 309.476 729.838 309.836C729.406 310.196 729.142 310.688 729.046 311.312H733.816C733.72 310.7 733.456 310.214 733.024 309.854C732.592 309.482 732.064 309.296 731.44 309.296ZM747.815 307.316V317H745.007V309.62H741.947L741.857 311.33C741.809 312.602 741.689 313.658 741.497 314.498C741.305 315.338 740.993 315.998 740.561 316.478C740.129 316.958 739.529 317.198 738.761 317.198C738.353 317.198 737.867 317.126 737.303 316.982L737.447 314.678C737.639 314.702 737.777 314.714 737.861 314.714C738.281 314.714 738.593 314.564 738.797 314.264C739.013 313.952 739.157 313.562 739.229 313.094C739.301 312.614 739.355 311.984 739.391 311.204L739.535 307.316H747.815ZM754.277 307.172C755.777 307.172 756.929 307.532 757.733 308.252C758.537 308.96 758.939 310.034 758.939 311.474V317H756.311V315.794C755.783 316.694 754.799 317.144 753.359 317.144C752.615 317.144 751.967 317.018 751.415 316.766C750.875 316.514 750.461 316.166 750.173 315.722C749.885 315.278 749.741 314.774 749.741 314.21C749.741 313.31 750.077 312.602 750.749 312.086C751.433 311.57 752.483 311.312 753.899 311.312H756.131C756.131 310.7 755.945 310.232 755.573 309.908C755.201 309.572 754.643 309.404 753.899 309.404C753.383 309.404 752.873 309.488 752.369 309.656C751.877 309.812 751.457 310.028 751.109 310.304L750.101 308.342C750.629 307.97 751.259 307.682 751.991 307.478C752.735 307.274 753.497 307.172 754.277 307.172ZM754.061 315.254C754.541 315.254 754.967 315.146 755.339 314.93C755.711 314.702 755.975 314.372 756.131 313.94V312.95H754.205C753.053 312.95 752.477 313.328 752.477 314.084C752.477 314.444 752.615 314.732 752.891 314.948C753.179 315.152 753.569 315.254 754.061 315.254ZM770.792 312.194C770.792 312.23 770.774 312.482 770.738 312.95H763.412C763.544 313.55 763.856 314.024 764.348 314.372C764.84 314.72 765.452 314.894 766.184 314.894C766.688 314.894 767.132 314.822 767.516 314.678C767.912 314.522 768.278 314.282 768.614 313.958L770.108 315.578C769.196 316.622 767.864 317.144 766.112 317.144C765.02 317.144 764.054 316.934 763.214 316.514C762.374 316.082 761.726 315.488 761.27 314.732C760.814 313.976 760.586 313.118 760.586 312.158C760.586 311.21 760.808 310.358 761.252 309.602C761.708 308.834 762.326 308.24 763.106 307.82C763.898 307.388 764.78 307.172 765.752 307.172C766.7 307.172 767.558 307.376 768.326 307.784C769.094 308.192 769.694 308.78 770.126 309.548C770.57 310.304 770.792 311.186 770.792 312.194ZM765.77 309.296C765.134 309.296 764.6 309.476 764.168 309.836C763.736 310.196 763.472 310.688 763.376 311.312H768.146C768.05 310.7 767.786 310.214 767.354 309.854C766.922 309.482 766.394 309.296 765.77 309.296ZM782.395 317V311.204L779.497 316.064H778.309L775.483 311.186V317H772.945V307.316H775.879L778.975 312.914L782.269 307.316H784.897L784.933 317H782.395ZM791.384 307.172C792.884 307.172 794.036 307.532 794.84 308.252C795.644 308.96 796.046 310.034 796.046 311.474V317H793.418V315.794C792.89 316.694 791.906 317.144 790.466 317.144C789.722 317.144 789.074 317.018 788.522 316.766C787.982 316.514 787.568 316.166 787.28 315.722C786.992 315.278 786.848 314.774 786.848 314.21C786.848 313.31 787.184 312.602 787.856 312.086C788.54 311.57 789.59 311.312 791.006 311.312H793.238C793.238 310.7 793.052 310.232 792.68 309.908C792.308 309.572 791.75 309.404 791.006 309.404C790.49 309.404 789.98 309.488 789.476 309.656C788.984 309.812 788.564 310.028 788.216 310.304L787.208 308.342C787.736 307.97 788.366 307.682 789.098 307.478C789.842 307.274 790.604 307.172 791.384 307.172ZM791.168 315.254C791.648 315.254 792.074 315.146 792.446 314.93C792.818 314.702 793.082 314.372 793.238 313.94V312.95H791.312C790.16 312.95 789.584 313.328 789.584 314.084C789.584 314.444 789.722 314.732 789.998 314.948C790.286 315.152 790.676 315.254 791.168 315.254ZM807.09 307.316V317H804.588V314.228H802.518L800.682 317H797.694L799.908 313.832C799.236 313.568 798.72 313.19 798.36 312.698C798.012 312.194 797.838 311.588 797.838 310.88C797.838 309.74 798.246 308.864 799.062 308.252C799.89 307.628 801.024 307.316 802.464 307.316H807.09ZM802.518 309.602C801.918 309.602 801.462 309.71 801.15 309.926C800.85 310.142 800.7 310.49 800.7 310.97C800.7 311.45 800.844 311.804 801.132 312.032C801.432 312.248 801.882 312.356 802.482 312.356H804.588V309.602H802.518ZM725.947 329.316V339H723.139V331.62H719.107V339H716.317V329.316H725.947ZM734.345 329.172C735.245 329.172 736.061 329.382 736.793 329.802C737.537 330.21 738.119 330.792 738.539 331.548C738.959 332.292 739.169 333.162 739.169 334.158C739.169 335.154 738.959 336.03 738.539 336.786C738.119 337.53 737.537 338.112 736.793 338.532C736.061 338.94 735.245 339.144 734.345 339.144C733.109 339.144 732.137 338.754 731.429 337.974V342.492H728.621V329.316H731.303V330.432C731.999 329.592 733.013 329.172 734.345 329.172ZM733.859 336.84C734.579 336.84 735.167 336.6 735.623 336.12C736.091 335.628 736.325 334.974 736.325 334.158C736.325 333.342 736.091 332.694 735.623 332.214C735.167 331.722 734.579 331.476 733.859 331.476C733.139 331.476 732.545 331.722 732.077 332.214C731.621 332.694 731.393 333.342 731.393 334.158C731.393 334.974 731.621 335.628 732.077 336.12C732.545 336.6 733.139 336.84 733.859 336.84ZM741.137 329.316H743.927V335.076L748.643 329.316H751.217V339H748.427V333.24L743.729 339H741.137V329.316ZM759.514 329.982C760.438 329.982 761.248 330.174 761.944 330.558C762.64 330.93 763.174 331.458 763.546 332.142C763.93 332.826 764.122 333.618 764.122 334.518C764.122 335.442 763.894 336.264 763.438 336.984C762.994 337.692 762.37 338.244 761.566 338.64C760.762 339.024 759.85 339.216 758.83 339.216C757.138 339.216 755.806 338.676 754.834 337.596C753.874 336.504 753.394 334.908 753.394 332.808C753.394 330.864 753.814 329.316 754.654 328.164C755.506 327 756.808 326.238 758.56 325.878L763.168 324.96L763.546 327.372L759.478 328.182C758.374 328.398 757.552 328.758 757.012 329.262C756.484 329.766 756.172 330.48 756.076 331.404C756.496 330.948 757 330.6 757.588 330.36C758.176 330.108 758.818 329.982 759.514 329.982ZM758.848 337.038C759.568 337.038 760.144 336.804 760.576 336.336C761.02 335.868 761.242 335.274 761.242 334.554C761.242 333.822 761.02 333.24 760.576 332.808C760.144 332.376 759.568 332.16 758.848 332.16C758.116 332.16 757.528 332.376 757.084 332.808C756.64 333.24 756.418 333.822 756.418 334.554C756.418 335.286 756.646 335.886 757.102 336.354C757.558 336.81 758.14 337.038 758.848 337.038ZM771.122 332.412C772.382 332.424 773.336 332.706 773.984 333.258C774.632 333.81 774.956 334.602 774.956 335.634C774.956 336.714 774.59 337.548 773.858 338.136C773.126 338.724 772.088 339.018 770.744 339.018L766.028 339V329.316H768.818V332.412H771.122ZM776 329.316H778.79V339H776V329.316ZM770.492 337.02C771.032 337.032 771.446 336.918 771.734 336.678C772.022 336.438 772.166 336.078 772.166 335.598C772.166 335.13 772.022 334.788 771.734 334.572C771.458 334.356 771.044 334.242 770.492 334.23L768.818 334.212V337.02H770.492ZM790.784 329.316V339H787.976V331.62H784.916L784.826 333.33C784.778 334.602 784.658 335.658 784.466 336.498C784.274 337.338 783.962 337.998 783.53 338.478C783.098 338.958 782.498 339.198 781.73 339.198C781.322 339.198 780.836 339.126 780.272 338.982L780.416 336.678C780.608 336.702 780.746 336.714 780.83 336.714C781.25 336.714 781.562 336.564 781.766 336.264C781.982 335.952 782.126 335.562 782.198 335.094C782.27 334.614 782.324 333.984 782.36 333.204L782.504 329.316H790.784ZM798.723 332.412C799.983 332.424 800.949 332.712 801.621 333.276C802.293 333.828 802.629 334.614 802.629 335.634C802.629 336.702 802.251 337.536 801.495 338.136C800.751 338.724 799.701 339.018 798.345 339.018L793.485 339V329.316H796.275V332.412H798.723ZM798.093 337.02C798.633 337.032 799.047 336.918 799.335 336.678C799.623 336.438 799.767 336.078 799.767 335.598C799.767 335.13 799.623 334.788 799.335 334.572C799.059 334.356 798.645 334.242 798.093 334.23L796.275 334.212V337.02H798.093Z" fill="white"/>
<line x1="845" y1="360" x2="925" y2="360" stroke="#A56492" stroke-width="8"/>
<line x1="845" y1="360" x2="925" y2="360" stroke="#A56492" stroke-width="8"/>
<line x1="845" y1="382" x2="925" y2="382" stroke="#A56492" stroke-width="8"/>
<line x1="845" y1="382" x2="925" y2="382" stroke="#A56492" stroke-width="8"/>
<path d="M981.466 354V360.3L965.866 396H955.306L970.366 361.92H956.446V368.76H947.806V354H981.466ZM1020.33 387.18H1013.49V396H1004.01V387.18H981.387V380.64L1001.19 354H1011.39L993.027 379.26H1004.31V371.4H1013.49V379.26H1020.33V387.18ZM1063.33 379.2C1065.25 379.8 1066.73 380.72 1067.77 381.96C1068.85 383.2 1069.39 384.68 1069.39 386.4C1069.39 388.44 1068.69 390.24 1067.29 391.8C1065.89 393.32 1063.97 394.5 1061.53 395.34C1059.09 396.18 1056.33 396.6 1053.25 396.6C1050.73 396.6 1048.25 396.34 1045.81 395.82C1043.37 395.3 1041.11 394.52 1039.03 393.48L1041.55 386.94C1044.95 388.58 1048.71 389.4 1052.83 389.4C1055.03 389.4 1056.75 389.08 1057.99 388.44C1059.27 387.76 1059.91 386.82 1059.91 385.62C1059.91 384.58 1059.47 383.8 1058.59 383.28C1057.71 382.72 1056.43 382.44 1054.75 382.44H1048.15V376.62H1053.91C1055.55 376.62 1056.81 376.36 1057.69 375.84C1058.57 375.32 1059.01 374.56 1059.01 373.56C1059.01 372.52 1058.45 371.72 1057.33 371.16C1056.25 370.6 1054.69 370.32 1052.65 370.32C1049.53 370.32 1046.13 371.06 1042.45 372.54L1040.17 366.06C1044.65 364.1 1049.01 363.12 1053.25 363.12C1056.17 363.12 1058.77 363.48 1061.05 364.2C1063.37 364.92 1065.19 365.98 1066.51 367.38C1067.83 368.74 1068.49 370.34 1068.49 372.18C1068.49 373.7 1068.03 375.08 1067.11 376.32C1066.19 377.52 1064.93 378.48 1063.33 379.2ZM1088.74 363.24C1093.74 363.24 1097.58 364.44 1100.26 366.84C1102.94 369.2 1104.28 372.78 1104.28 377.58V396H1095.52V391.98C1093.76 394.98 1090.48 396.48 1085.68 396.48C1083.2 396.48 1081.04 396.06 1079.2 395.22C1077.4 394.38 1076.02 393.22 1075.06 391.74C1074.1 390.26 1073.62 388.58 1073.62 386.7C1073.62 383.7 1074.74 381.34 1076.98 379.62C1079.26 377.9 1082.76 377.04 1087.48 377.04H1094.92C1094.92 375 1094.3 373.44 1093.06 372.36C1091.82 371.24 1089.96 370.68 1087.48 370.68C1085.76 370.68 1084.06 370.96 1082.38 371.52C1080.74 372.04 1079.34 372.76 1078.18 373.68L1074.82 367.14C1076.58 365.9 1078.68 364.94 1081.12 364.26C1083.6 363.58 1086.14 363.24 1088.74 363.24ZM1088.02 390.18C1089.62 390.18 1091.04 389.82 1092.28 389.1C1093.52 388.34 1094.4 387.24 1094.92 385.8V382.5H1088.5C1084.66 382.5 1082.74 383.76 1082.74 386.28C1082.74 387.48 1083.2 388.44 1084.12 389.16C1085.08 389.84 1086.38 390.18 1088.02 390.18ZM1126.63 383.76H1121.77V396H1112.41V363.72H1121.77V376.26H1126.81L1135.57 363.72H1145.53L1134.25 379.2L1146.31 396H1135.27L1126.63 383.76ZM1162.86 363.24C1167.86 363.24 1171.7 364.44 1174.38 366.84C1177.06 369.2 1178.4 372.78 1178.4 377.58V396H1169.64V391.98C1167.88 394.98 1164.6 396.48 1159.8 396.48C1157.32 396.48 1155.16 396.06 1153.32 395.22C1151.52 394.38 1150.14 393.22 1149.18 391.74C1148.22 390.26 1147.74 388.58 1147.74 386.7C1147.74 383.7 1148.86 381.34 1151.1 379.62C1153.38 377.9 1156.88 377.04 1161.6 377.04H1169.04C1169.04 375 1168.42 373.44 1167.18 372.36C1165.94 371.24 1164.08 370.68 1161.6 370.68C1159.88 370.68 1158.18 370.96 1156.5 371.52C1154.86 372.04 1153.46 372.76 1152.3 373.68L1148.94 367.14C1150.7 365.9 1152.8 364.94 1155.24 364.26C1157.72 363.58 1160.26 363.24 1162.86 363.24ZM1162.14 390.18C1163.74 390.18 1165.16 389.82 1166.4 389.1C1167.64 388.34 1168.52 387.24 1169.04 385.8V382.5H1162.62C1158.78 382.5 1156.86 383.76 1156.86 386.28C1156.86 387.48 1157.32 388.44 1158.24 389.16C1159.2 389.84 1160.5 390.18 1162.14 390.18ZM1207.17 379.2C1209.09 379.8 1210.57 380.72 1211.61 381.96C1212.69 383.2 1213.23 384.68 1213.23 386.4C1213.23 388.44 1212.53 390.24 1211.13 391.8C1209.73 393.32 1207.81 394.5 1205.37 395.34C1202.93 396.18 1200.17 396.6 1197.09 396.6C1194.57 396.6 1192.09 396.34 1189.65 395.82C1187.21 395.3 1184.95 394.52 1182.87 393.48L1185.39 386.94C1188.79 388.58 1192.55 389.4 1196.67 389.4C1198.87 389.4 1200.59 389.08 1201.83 388.44C1203.11 387.76 1203.75 386.82 1203.75 385.62C1203.75 384.58 1203.31 383.8 1202.43 383.28C1201.55 382.72 1200.27 382.44 1198.59 382.44H1191.99V376.62H1197.75C1199.39 376.62 1200.65 376.36 1201.53 375.84C1202.41 375.32 1202.85 374.56 1202.85 373.56C1202.85 372.52 1202.29 371.72 1201.17 371.16C1200.09 370.6 1198.53 370.32 1196.49 370.32C1193.37 370.32 1189.97 371.06 1186.29 372.54L1184.01 366.06C1188.49 364.1 1192.85 363.12 1197.09 363.12C1200.01 363.12 1202.61 363.48 1204.89 364.2C1207.21 364.92 1209.03 365.98 1210.35 367.38C1211.67 368.74 1212.33 370.34 1212.33 372.18C1212.33 373.7 1211.87 375.08 1210.95 376.32C1210.03 377.52 1208.77 378.48 1207.17 379.2ZM1232.58 363.24C1237.58 363.24 1241.42 364.44 1244.1 366.84C1246.78 369.2 1248.12 372.78 1248.12 377.58V396H1239.36V391.98C1237.6 394.98 1234.32 396.48 1229.52 396.48C1227.04 396.48 1224.88 396.06 1223.04 395.22C1221.24 394.38 1219.86 393.22 1218.9 391.74C1217.94 390.26 1217.46 388.58 1217.46 386.7C1217.46 383.7 1218.58 381.34 1220.82 379.62C1223.1 377.9 1226.6 377.04 1231.32 377.04H1238.76C1238.76 375 1238.14 373.44 1236.9 372.36C1235.66 371.24 1233.8 370.68 1231.32 370.68C1229.6 370.68 1227.9 370.96 1226.22 371.52C1224.58 372.04 1223.18 372.76 1222.02 373.68L1218.66 367.14C1220.42 365.9 1222.52 364.94 1224.96 364.26C1227.44 363.58 1229.98 363.24 1232.58 363.24ZM1231.86 390.18C1233.46 390.18 1234.88 389.82 1236.12 389.1C1237.36 388.34 1238.24 387.24 1238.76 385.8V382.5H1232.34C1228.5 382.5 1226.58 383.76 1226.58 386.28C1226.58 387.48 1227.04 388.44 1227.96 389.16C1228.92 389.84 1230.22 390.18 1231.86 390.18Z" fill="black"/>
</svg>
