<svg width="1600" height="461" viewBox="0 0 1600 461" fill="none" xmlns="http://www.w3.org/2000/svg">
<path d="M0 0H1600V461H0V0Z" fill="white"/>
<path fill-rule="evenodd" clip-rule="evenodd" d="M341.726 139.656H256.344V119L116 141.24V336.181L256.344 361V330.383H341.726C344.311 330.518 346.844 329.596 348.769 327.818C350.695 326.041 351.856 323.553 352 320.899V149.132C351.854 146.479 350.692 143.994 348.766 142.218C346.841 140.443 344.31 139.522 341.726 139.656ZM343.074 322.474H256.058L255.914 306.127H276.876V287.089H255.754L255.653 275.839H276.876V256.801H255.493L255.392 245.551H276.876V226.513H255.324V215.263H276.876V196.225H255.324V184.976H276.876V165.938H255.324V148.63H343.074V322.474Z" fill="#20744A"/>
<path d="M284.978 166.161H323.614V185.136H284.978V166.161Z" fill="#20744A"/>
<path d="M284.978 196.357H323.614V215.332H284.978V196.357Z" fill="#20744A"/>
<path d="M284.978 226.554H323.614V245.529H284.978V226.554Z" fill="#20744A"/>
<path d="M284.978 256.75H323.614V275.725H284.978V256.75Z" fill="#20744A"/>
<path d="M284.978 286.946H323.614V305.921H284.978V286.946Z" fill="#20744A"/>
<path fill-rule="evenodd" clip-rule="evenodd" d="M140.726 194.055L159.906 192.994L171.963 224.984L186.209 191.674L205.389 190.613L182.098 236.033L205.389 281.564L185.11 280.244L171.418 245.537L157.716 278.925L139.082 277.338L160.728 237.119L140.726 194.055Z" fill="white"/>
</svg>
