<svg width="1023" height="553" viewBox="0 0 1023 553" fill="none" xmlns="http://www.w3.org/2000/svg">
<rect width="1023" height="552.267" fill="#C4C4C4"/>
<path d="M312.688 273.44C318.832 275.264 323.536 278.24 326.8 282.368C330.064 286.496 331.696 291.584 331.696 297.632C331.696 306.56 328.288 313.52 321.472 318.512C314.752 323.504 305.104 326 292.528 326H242.848V225.2H289.792C301.504 225.2 310.624 227.456 317.152 231.968C323.68 236.48 326.944 242.912 326.944 251.264C326.944 256.256 325.696 260.672 323.2 264.512C320.704 268.256 317.2 271.232 312.688 273.44ZM266.032 266.96H287.776C292.864 266.96 296.704 265.952 299.296 263.936C301.888 261.824 303.184 258.752 303.184 254.72C303.184 250.784 301.84 247.76 299.152 245.648C296.56 243.536 292.768 242.48 287.776 242.48H266.032V266.96ZM291.664 308.72C302.608 308.72 308.08 304.4 308.08 295.76C308.08 287.408 302.608 283.232 291.664 283.232H266.032V308.72H291.664ZM350.145 225.2H373.329V290.864L421.425 225.2H443.313V326H420.273V260.48L372.177 326H350.145V225.2ZM571.676 306.992V346.88H550.076V326H478.94V346.88H457.34L457.484 306.992H461.516C467.564 306.8 471.836 302.384 474.332 293.744C476.828 285.104 478.364 272.768 478.94 256.736L480.092 225.2H557.564V306.992H571.676ZM499.532 258.896C499.052 270.896 498.044 280.976 496.508 289.136C494.972 297.2 492.62 303.152 489.452 306.992H534.524V244.208H499.964L499.532 258.896ZM665.428 307.28V326H587.38V225.2H663.556V243.92H610.564V265.808H657.364V283.952H610.564V307.28H665.428ZM732.085 327.728C721.621 327.728 712.165 325.472 703.717 320.96C695.365 316.448 688.789 310.256 683.989 302.384C679.285 294.416 676.933 285.488 676.933 275.6C676.933 265.712 679.285 256.832 683.989 248.96C688.789 240.992 695.365 234.752 703.717 230.24C712.165 225.728 721.621 223.472 732.085 223.472C742.549 223.472 751.957 225.728 760.309 230.24C768.661 234.752 775.237 240.992 780.037 248.96C784.837 256.832 787.237 265.712 787.237 275.6C787.237 285.488 784.837 294.416 780.037 302.384C775.237 310.256 768.661 316.448 760.309 320.96C751.957 325.472 742.549 327.728 732.085 327.728ZM732.085 307.856C738.037 307.856 743.413 306.512 748.213 303.824C753.013 301.04 756.757 297.2 759.445 292.304C762.229 287.408 763.621 281.84 763.621 275.6C763.621 269.36 762.229 263.792 759.445 258.896C756.757 254 753.013 250.208 748.213 247.52C743.413 244.736 738.037 243.344 732.085 243.344C726.133 243.344 720.757 244.736 715.957 247.52C711.157 250.208 707.365 254 704.581 258.896C701.893 263.792 700.549 269.36 700.549 275.6C700.549 281.84 701.893 287.408 704.581 292.304C707.365 297.2 711.157 301.04 715.957 303.824C720.757 306.512 726.133 307.856 732.085 307.856Z" fill="white"/>
</svg>
