<svg width="539" height="407" viewBox="0 0 539 407" fill="none" xmlns="http://www.w3.org/2000/svg">
<circle cx="35.5" cy="41.5" r="32.5" fill="#A56492" fill-opacity="0.65"/>
<path d="M49.4604 58.433L47.5671 43.2745C47.2988 41.1274 46.2553 39.1523 44.6329 37.7206C43.0105 36.2889 40.9209 35.4992 38.7572 35.5H32.237C30.0742 35.5006 27.9861 36.2909 26.3649 37.7225C24.7438 39.1541 23.7012 41.1284 23.433 43.2745L21.5367 58.433C21.4326 59.2658 21.5069 60.1112 21.7547 60.9131C22.0024 61.715 22.4179 62.455 22.9736 63.084C23.5293 63.713 24.2124 64.2166 24.9776 64.5613C25.7428 64.906 26.5727 65.0839 27.4119 65.0833H43.5881C44.4271 65.0835 45.2566 64.9052 46.0215 64.5603C46.7864 64.2155 47.4691 63.7118 48.0245 63.0829C48.5799 62.454 48.9951 61.7141 49.2427 60.9124C49.4902 60.1107 49.5644 59.2656 49.4604 58.433V58.433Z" stroke="#F8F8F8" stroke-width="5" stroke-linecap="round" stroke-linejoin="round"/>
<path d="M35.5 23.6667C40.4015 23.6667 44.375 19.6932 44.375 14.7917C44.375 9.89014 40.4015 5.91666 35.5 5.91666C30.5985 5.91666 26.625 9.89014 26.625 14.7917C26.625 19.6932 30.5985 23.6667 35.5 23.6667Z" stroke="#F8F8F8" stroke-width="5"/>
<path d="M11.8334 32.5417C15.101 32.5417 17.75 29.8927 17.75 26.625C17.75 23.3573 15.101 20.7083 11.8334 20.7083C8.56567 20.7083 5.91669 23.3573 5.91669 26.625C5.91669 29.8927 8.56567 32.5417 11.8334 32.5417Z" stroke="#F8F8F8" stroke-width="5"/>
<path d="M59.1667 32.5417C62.4344 32.5417 65.0833 29.8927 65.0833 26.625C65.0833 23.3573 62.4344 20.7083 59.1667 20.7083C55.899 20.7083 53.25 23.3573 53.25 26.625C53.25 29.8927 55.899 32.5417 59.1667 32.5417Z" stroke="#F8F8F8" stroke-width="5"/>
<path d="M11.8333 41.4167H10.9281C9.5275 41.4165 8.17227 41.9132 7.10349 42.8184C6.03471 43.7235 5.3217 44.9785 5.0913 46.36L4.10618 52.2767C3.9648 53.1244 4.0098 53.9927 4.23803 54.8213C4.46626 55.6498 4.87224 56.4187 5.42774 57.0744C5.98325 57.7302 6.67494 58.257 7.45469 58.6183C8.23445 58.9797 9.08356 59.1668 9.94297 59.1667H20.7083" stroke="#F8F8F8" stroke-width="5" stroke-linecap="round" stroke-linejoin="round"/>
<path d="M59.1667 41.4167H60.0719C61.4725 41.4165 62.8278 41.9132 63.8965 42.8184C64.9653 43.7235 65.6783 44.9785 65.9087 46.36L66.8939 52.2767C67.0352 53.1244 66.9902 53.9927 66.762 54.8213C66.5338 55.6498 66.1278 56.4187 65.5723 57.0744C65.0168 57.7302 64.3251 58.257 63.5453 58.6183C62.7656 58.9797 61.9165 59.1668 61.0571 59.1667H50.2917" stroke="#F8F8F8" stroke-width="5" stroke-linecap="round" stroke-linejoin="round"/>
<path d="M126.952 16.896C129.352 16.896 131.112 17.352 132.232 18.264C133.368 19.16 133.936 20.392 133.936 21.96C133.936 22.952 133.696 23.848 133.216 24.648C132.752 25.432 132.04 26.056 131.08 26.52C130.136 26.968 128.968 27.192 127.576 27.192C126.392 27.192 125.248 27.016 124.144 26.664C123.04 26.296 122.128 25.792 121.408 25.152L122.512 23.256C123.088 23.8 123.824 24.24 124.72 24.576C125.616 24.896 126.56 25.056 127.552 25.056C128.816 25.056 129.792 24.792 130.48 24.264C131.184 23.72 131.536 22.984 131.536 22.056C131.536 21.048 131.152 20.288 130.384 19.776C129.616 19.248 128.304 18.984 126.448 18.984H122.632L123.52 10.2H133V12.288H125.536L125.08 16.896H126.952ZM147.624 24.912V27H135.552V25.368L142.392 18.768C143.224 17.968 143.784 17.28 144.072 16.704C144.36 16.112 144.504 15.52 144.504 14.928C144.504 14.048 144.192 13.368 143.568 12.888C142.96 12.392 142.08 12.144 140.928 12.144C139.072 12.144 137.64 12.752 136.632 13.968L135 12.552C135.656 11.752 136.512 11.128 137.568 10.68C138.64 10.232 139.832 10.008 141.144 10.008C142.904 10.008 144.304 10.432 145.344 11.28C146.384 12.112 146.904 13.248 146.904 14.688C146.904 15.584 146.712 16.432 146.328 17.232C145.944 18.032 145.216 18.944 144.144 19.968L139.008 24.912H147.624ZM168.907 14.28V27H166.603V16.296H159.427V27H157.123V14.28H168.907ZM177.901 14.16C179.661 14.16 181.005 14.592 181.933 15.456C182.877 16.32 183.349 17.608 183.349 19.32V27H181.165V25.32C180.781 25.912 180.229 26.368 179.509 26.688C178.805 26.992 177.965 27.144 176.989 27.144C175.565 27.144 174.421 26.8 173.557 26.112C172.709 25.424 172.285 24.52 172.285 23.4C172.285 22.28 172.693 21.384 173.509 20.712C174.325 20.024 175.621 19.68 177.397 19.68H181.045V19.224C181.045 18.232 180.757 17.472 180.181 16.944C179.605 16.416 178.757 16.152 177.637 16.152C176.885 16.152 176.149 16.28 175.429 16.536C174.709 16.776 174.101 17.104 173.605 17.52L172.645 15.792C173.301 15.264 174.085 14.864 174.997 14.592C175.909 14.304 176.877 14.16 177.901 14.16ZM177.373 25.368C178.253 25.368 179.013 25.176 179.653 24.792C180.293 24.392 180.757 23.832 181.045 23.112V21.336H177.493C175.541 21.336 174.565 21.992 174.565 23.304C174.565 23.944 174.813 24.448 175.309 24.816C175.805 25.184 176.493 25.368 177.373 25.368ZM194.242 14.16C195.474 14.16 196.578 14.432 197.554 14.976C198.53 15.52 199.29 16.28 199.834 17.256C200.394 18.232 200.674 19.36 200.674 20.64C200.674 21.92 200.394 23.056 199.834 24.048C199.29 25.024 198.53 25.784 197.554 26.328C196.578 26.872 195.474 27.144 194.242 27.144C193.33 27.144 192.49 26.968 191.722 26.616C190.97 26.264 190.33 25.752 189.802 25.08V31.656H187.498V14.28H189.706V16.296C190.218 15.592 190.866 15.064 191.65 14.712C192.434 14.344 193.298 14.16 194.242 14.16ZM194.05 25.128C194.866 25.128 195.594 24.944 196.234 24.576C196.89 24.192 197.402 23.664 197.77 22.992C198.154 22.304 198.346 21.52 198.346 20.64C198.346 19.76 198.154 18.984 197.77 18.312C197.402 17.624 196.89 17.096 196.234 16.728C195.594 16.36 194.866 16.176 194.05 16.176C193.25 16.176 192.522 16.368 191.866 16.752C191.226 17.12 190.714 17.64 190.33 18.312C189.962 18.984 189.778 19.76 189.778 20.64C189.778 21.52 189.962 22.304 190.33 22.992C190.698 23.664 191.21 24.192 191.866 24.576C192.522 24.944 193.25 25.128 194.05 25.128ZM213.032 16.296H208.376V27H206.072V16.296H201.416V14.28H213.032V16.296ZM215.388 14.28H217.692V19.68H224.94V14.28H227.244V27H224.94V21.672H217.692V27H215.388V14.28ZM243.22 20.712C243.22 20.888 243.204 21.12 243.172 21.408H232.852C232.996 22.528 233.484 23.432 234.316 24.12C235.164 24.792 236.212 25.128 237.46 25.128C238.98 25.128 240.204 24.616 241.132 23.592L242.404 25.08C241.828 25.752 241.108 26.264 240.244 26.616C239.396 26.968 238.444 27.144 237.388 27.144C236.044 27.144 234.852 26.872 233.812 26.328C232.772 25.768 231.964 24.992 231.388 24C230.828 23.008 230.548 21.888 230.548 20.64C230.548 19.408 230.82 18.296 231.364 17.304C231.924 16.312 232.684 15.544 233.644 15C234.62 14.44 235.716 14.16 236.932 14.16C238.148 14.16 239.228 14.44 240.172 15C241.132 15.544 241.876 16.312 242.404 17.304C242.948 18.296 243.22 19.432 243.22 20.712ZM236.932 16.104C235.828 16.104 234.9 16.44 234.148 17.112C233.412 17.784 232.98 18.664 232.852 19.752H241.012C240.884 18.68 240.444 17.808 239.692 17.136C238.956 16.448 238.036 16.104 236.932 16.104ZM253.539 14.16C254.771 14.16 255.875 14.432 256.851 14.976C257.827 15.52 258.587 16.28 259.131 17.256C259.691 18.232 259.971 19.36 259.971 20.64C259.971 21.92 259.691 23.056 259.131 24.048C258.587 25.024 257.827 25.784 256.851 26.328C255.875 26.872 254.771 27.144 253.539 27.144C252.627 27.144 251.787 26.968 251.019 26.616C250.267 26.264 249.627 25.752 249.099 25.08V31.656H246.795V14.28H249.003V16.296C249.515 15.592 250.163 15.064 250.947 14.712C251.731 14.344 252.595 14.16 253.539 14.16ZM253.347 25.128C254.163 25.128 254.891 24.944 255.531 24.576C256.187 24.192 256.699 23.664 257.067 22.992C257.451 22.304 257.643 21.52 257.643 20.64C257.643 19.76 257.451 18.984 257.067 18.312C256.699 17.624 256.187 17.096 255.531 16.728C254.891 16.36 254.163 16.176 253.347 16.176C252.547 16.176 251.819 16.368 251.163 16.752C250.523 17.12 250.011 17.64 249.627 18.312C249.259 18.984 249.075 19.76 249.075 20.64C249.075 21.52 249.259 22.304 249.627 22.992C249.995 23.664 250.507 24.192 251.163 24.576C251.819 24.944 252.547 25.128 253.347 25.128ZM267.737 14.16C269.497 14.16 270.841 14.592 271.769 15.456C272.713 16.32 273.185 17.608 273.185 19.32V27H271.001V25.32C270.617 25.912 270.065 26.368 269.345 26.688C268.641 26.992 267.801 27.144 266.825 27.144C265.401 27.144 264.257 26.8 263.393 26.112C262.545 25.424 262.121 24.52 262.121 23.4C262.121 22.28 262.529 21.384 263.345 20.712C264.161 20.024 265.457 19.68 267.233 19.68H270.881V19.224C270.881 18.232 270.593 17.472 270.017 16.944C269.441 16.416 268.593 16.152 267.473 16.152C266.721 16.152 265.985 16.28 265.265 16.536C264.545 16.776 263.937 17.104 263.441 17.52L262.481 15.792C263.137 15.264 263.921 14.864 264.833 14.592C265.745 14.304 266.713 14.16 267.737 14.16ZM267.209 25.368C268.089 25.368 268.849 25.176 269.489 24.792C270.129 24.392 270.593 23.832 270.881 23.112V21.336H267.329C265.377 21.336 264.401 21.992 264.401 23.304C264.401 23.944 264.649 24.448 265.145 24.816C265.641 25.184 266.329 25.368 267.209 25.368ZM135.016 43.28V56H132.712V45.296H125.536V56H123.232V43.28H135.016ZM144.922 56.144C143.658 56.144 142.522 55.864 141.514 55.304C140.506 54.744 139.714 53.976 139.138 53C138.578 52.008 138.298 50.888 138.298 49.64C138.298 48.392 138.578 47.28 139.138 46.304C139.714 45.312 140.506 44.544 141.514 44C142.522 43.44 143.658 43.16 144.922 43.16C146.186 43.16 147.314 43.44 148.306 44C149.314 44.544 150.098 45.312 150.658 46.304C151.234 47.28 151.522 48.392 151.522 49.64C151.522 50.888 151.234 52.008 150.658 53C150.098 53.976 149.314 54.744 148.306 55.304C147.314 55.864 146.186 56.144 144.922 56.144ZM144.922 54.128C145.738 54.128 146.466 53.944 147.106 53.576C147.762 53.192 148.274 52.664 148.642 51.992C149.01 51.304 149.194 50.52 149.194 49.64C149.194 48.76 149.01 47.984 148.642 47.312C148.274 46.624 147.762 46.096 147.106 45.728C146.466 45.36 145.738 45.176 144.922 45.176C144.106 45.176 143.37 45.36 142.714 45.728C142.074 46.096 141.562 46.624 141.178 47.312C140.81 47.984 140.626 48.76 140.626 49.64C140.626 50.52 140.81 51.304 141.178 51.992C141.562 52.664 142.074 53.192 142.714 53.576C143.37 53.944 144.106 54.128 144.922 54.128ZM168.231 39.2C170.407 39.2 172.119 39.72 173.367 40.76C174.615 41.8 175.239 43.232 175.239 45.056C175.239 46.88 174.615 48.312 173.367 49.352C172.119 50.392 170.407 50.912 168.231 50.912H164.079V56H161.679V39.2H168.231ZM168.159 48.824C169.679 48.824 170.839 48.504 171.639 47.864C172.439 47.208 172.839 46.272 172.839 45.056C172.839 43.84 172.439 42.912 171.639 42.272C170.839 41.616 169.679 41.288 168.159 41.288H164.079V48.824H168.159ZM183.594 56.144C182.33 56.144 181.194 55.864 180.186 55.304C179.178 54.744 178.386 53.976 177.81 53C177.25 52.008 176.97 50.888 176.97 49.64C176.97 48.392 177.25 47.28 177.81 46.304C178.386 45.312 179.178 44.544 180.186 44C181.194 43.44 182.33 43.16 183.594 43.16C184.858 43.16 185.986 43.44 186.978 44C187.986 44.544 188.77 45.312 189.33 46.304C189.906 47.28 190.194 48.392 190.194 49.64C190.194 50.888 189.906 52.008 189.33 53C188.77 53.976 187.986 54.744 186.978 55.304C185.986 55.864 184.858 56.144 183.594 56.144ZM183.594 54.128C184.41 54.128 185.138 53.944 185.778 53.576C186.434 53.192 186.946 52.664 187.314 51.992C187.682 51.304 187.866 50.52 187.866 49.64C187.866 48.76 187.682 47.984 187.314 47.312C186.946 46.624 186.434 46.096 185.778 45.728C185.138 45.36 184.41 45.176 183.594 45.176C182.778 45.176 182.042 45.36 181.386 45.728C180.746 46.096 180.234 46.624 179.85 47.312C179.482 47.984 179.298 48.76 179.298 49.64C179.298 50.52 179.482 51.304 179.85 51.992C180.234 52.664 180.746 53.192 181.386 53.576C182.042 53.944 182.778 54.128 183.594 54.128ZM199.065 56.144C197.769 56.144 196.609 55.864 195.585 55.304C194.577 54.744 193.785 53.976 193.209 53C192.633 52.008 192.345 50.888 192.345 49.64C192.345 48.392 192.633 47.28 193.209 46.304C193.785 45.312 194.577 44.544 195.585 44C196.609 43.44 197.769 43.16 199.065 43.16C200.217 43.16 201.241 43.392 202.137 43.856C203.049 44.32 203.753 44.992 204.249 45.872L202.497 47C202.097 46.392 201.601 45.936 201.009 45.632C200.417 45.328 199.761 45.176 199.041 45.176C198.209 45.176 197.457 45.36 196.785 45.728C196.129 46.096 195.609 46.624 195.225 47.312C194.857 47.984 194.673 48.76 194.673 49.64C194.673 50.536 194.857 51.328 195.225 52.016C195.609 52.688 196.129 53.208 196.785 53.576C197.457 53.944 198.209 54.128 199.041 54.128C199.761 54.128 200.417 53.976 201.009 53.672C201.601 53.368 202.097 52.912 202.497 52.304L204.249 53.408C203.753 54.288 203.049 54.968 202.137 55.448C201.241 55.912 200.217 56.144 199.065 56.144ZM212.589 56.144C211.293 56.144 210.133 55.864 209.109 55.304C208.101 54.744 207.309 53.976 206.733 53C206.157 52.008 205.869 50.888 205.869 49.64C205.869 48.392 206.157 47.28 206.733 46.304C207.309 45.312 208.101 44.544 209.109 44C210.133 43.44 211.293 43.16 212.589 43.16C213.741 43.16 214.765 43.392 215.661 43.856C216.573 44.32 217.277 44.992 217.773 45.872L216.021 47C215.621 46.392 215.125 45.936 214.533 45.632C213.941 45.328 213.285 45.176 212.565 45.176C211.733 45.176 210.981 45.36 210.309 45.728C209.653 46.096 209.133 46.624 208.749 47.312C208.381 47.984 208.197 48.76 208.197 49.64C208.197 50.536 208.381 51.328 208.749 52.016C209.133 52.688 209.653 53.208 210.309 53.576C210.981 53.944 211.733 54.128 212.565 54.128C213.285 54.128 213.941 53.976 214.533 53.672C215.125 53.368 215.621 52.912 216.021 52.304L217.773 53.408C217.277 54.288 216.573 54.968 215.661 55.448C214.765 55.912 213.741 56.144 212.589 56.144ZM220.755 43.28H223.059V52.544L230.859 43.28H232.947V56H230.643V46.736L222.867 56H220.755V43.28ZM237.42 43.28H239.724V52.544L247.523 43.28H249.612V56H247.307V46.736L239.532 56H237.42V43.28ZM260.529 43.28H262.833V52.544L270.633 43.28H272.721V56H270.417V46.736L262.641 56H260.529V43.28ZM291.534 56.192C289.854 56.192 288.334 55.824 286.974 55.088C285.63 54.336 284.574 53.312 283.806 52.016C283.038 50.704 282.654 49.232 282.654 47.6C282.654 45.968 283.038 44.504 283.806 43.208C284.574 41.896 285.638 40.872 286.998 40.136C288.358 39.384 289.878 39.008 291.558 39.008C292.87 39.008 294.07 39.232 295.158 39.68C296.246 40.112 297.174 40.76 297.942 41.624L296.382 43.136C295.118 41.808 293.542 41.144 291.654 41.144C290.406 41.144 289.278 41.424 288.27 41.984C287.262 42.544 286.47 43.32 285.894 44.312C285.334 45.288 285.054 46.384 285.054 47.6C285.054 48.816 285.334 49.92 285.894 50.912C286.47 51.888 287.262 52.656 288.27 53.216C289.278 53.776 290.406 54.056 291.654 54.056C293.526 54.056 295.102 53.384 296.382 52.04L297.942 53.552C297.174 54.416 296.238 55.072 295.134 55.52C294.046 55.968 292.846 56.192 291.534 56.192ZM315.697 39.2V56H313.297V48.512H303.649V56H301.249V39.2H303.649V46.424H313.297V39.2H315.697ZM331.928 41.288H323.288L323.312 56H320.936V39.2H331.952L331.928 41.288Z" fill="white"/>
<circle cx="35.5" cy="150.5" r="32.5" fill="#A56492" fill-opacity="0.65"/>
<path d="M68.0417 146.625H53.25C52.4654 146.625 51.7129 146.937 51.1581 147.491C50.6033 148.046 50.2917 148.799 50.2917 149.583V176.208C50.2917 176.993 50.6033 177.745 51.1581 178.3C51.7129 178.855 52.4654 179.167 53.25 179.167H68.0417C68.8263 179.167 69.5787 178.855 70.1335 178.3C70.6883 177.745 71 176.993 71 176.208V149.583C71 148.799 70.6883 148.046 70.1335 147.491C69.5787 146.937 68.8263 146.625 68.0417 146.625ZM68.0417 173.25H53.25V152.542H68.0417V173.25ZM59.1667 120H5.91667C2.63292 120 0 122.633 0 125.917V161.417C0 162.986 0.623361 164.491 1.73295 165.6C2.84254 166.71 4.34747 167.333 5.91667 167.333H26.625V173.25H20.7083V179.167H44.375V173.25H38.4583V167.333H44.375V161.417H5.91667V125.917H59.1667V140.708H65.0833V125.917C65.0833 124.347 64.46 122.843 63.3504 121.733C62.2408 120.623 60.7359 120 59.1667 120Z" fill="#F8F8F8"/>
<path d="M131.128 144.192C129.448 144.192 127.928 143.824 126.568 143.088C125.224 142.336 124.168 141.312 123.4 140.016C122.632 138.704 122.248 137.232 122.248 135.6C122.248 133.968 122.632 132.504 123.4 131.208C124.168 129.896 125.232 128.872 126.592 128.136C127.952 127.384 129.472 127.008 131.152 127.008C132.464 127.008 133.664 127.232 134.752 127.68C135.84 128.112 136.768 128.76 137.536 129.624L135.976 131.136C134.712 129.808 133.136 129.144 131.248 129.144C130 129.144 128.872 129.424 127.864 129.984C126.856 130.544 126.064 131.32 125.488 132.312C124.928 133.288 124.648 134.384 124.648 135.6C124.648 136.816 124.928 137.92 125.488 138.912C126.064 139.888 126.856 140.656 127.864 141.216C128.872 141.776 130 142.056 131.248 142.056C133.12 142.056 134.696 141.384 135.976 140.04L137.536 141.552C136.768 142.416 135.832 143.072 134.728 143.52C133.64 143.968 132.44 144.192 131.128 144.192ZM144.831 131.16C146.591 131.16 147.935 131.592 148.863 132.456C149.807 133.32 150.279 134.608 150.279 136.32V144H148.095V142.32C147.711 142.912 147.159 143.368 146.439 143.688C145.735 143.992 144.895 144.144 143.919 144.144C142.495 144.144 141.351 143.8 140.487 143.112C139.639 142.424 139.215 141.52 139.215 140.4C139.215 139.28 139.623 138.384 140.439 137.712C141.255 137.024 142.551 136.68 144.327 136.68H147.975V136.224C147.975 135.232 147.687 134.472 147.111 133.944C146.535 133.416 145.687 133.152 144.567 133.152C143.815 133.152 143.079 133.28 142.359 133.536C141.639 133.776 141.031 134.104 140.535 134.52L139.575 132.792C140.231 132.264 141.015 131.864 141.927 131.592C142.839 131.304 143.807 131.16 144.831 131.16ZM144.303 142.368C145.183 142.368 145.943 142.176 146.583 141.792C147.223 141.392 147.687 140.832 147.975 140.112V138.336H144.423C142.471 138.336 141.495 138.992 141.495 140.304C141.495 140.944 141.743 141.448 142.239 141.816C142.735 142.184 143.423 142.368 144.303 142.368ZM154.427 131.28H156.731V140.544L164.531 131.28H166.619V144H164.315V134.736L156.539 144H154.427V131.28ZM160.379 129.624C159.195 129.624 158.275 129.344 157.619 128.784C156.963 128.208 156.627 127.384 156.611 126.312H158.171C158.187 126.904 158.387 127.384 158.771 127.752C159.171 128.104 159.699 128.28 160.355 128.28C161.011 128.28 161.539 128.104 161.939 127.752C162.339 127.384 162.547 126.904 162.563 126.312H164.171C164.155 127.384 163.811 128.208 163.139 128.784C162.467 129.344 161.547 129.624 160.379 129.624ZM180.571 133.296H175.915V144H173.611V133.296H168.955V131.28H180.571V133.296ZM189.373 131.28H191.677V140.544L199.477 131.28H201.565V144H199.261V134.736L191.485 144H189.373V131.28ZM221.842 133.296H214.786V144H212.482V131.28H221.842V133.296ZM230.945 131.16C232.177 131.16 233.281 131.432 234.257 131.976C235.233 132.52 235.993 133.28 236.537 134.256C237.097 135.232 237.377 136.36 237.377 137.64C237.377 138.92 237.097 140.056 236.537 141.048C235.993 142.024 235.233 142.784 234.257 143.328C233.281 143.872 232.177 144.144 230.945 144.144C230.033 144.144 229.193 143.968 228.425 143.616C227.673 143.264 227.033 142.752 226.505 142.08V148.656H224.201V131.28H226.409V133.296C226.921 132.592 227.569 132.064 228.353 131.712C229.137 131.344 230.001 131.16 230.945 131.16ZM230.753 142.128C231.569 142.128 232.297 141.944 232.937 141.576C233.593 141.192 234.105 140.664 234.473 139.992C234.857 139.304 235.049 138.52 235.049 137.64C235.049 136.76 234.857 135.984 234.473 135.312C234.105 134.624 233.593 134.096 232.937 133.728C232.297 133.36 231.569 133.176 230.753 133.176C229.953 133.176 229.225 133.368 228.569 133.752C227.929 134.12 227.417 134.64 227.033 135.312C226.665 135.984 226.481 136.76 226.481 137.64C226.481 138.52 226.665 139.304 227.033 139.992C227.401 140.664 227.913 141.192 228.569 141.576C229.225 141.944 229.953 142.128 230.753 142.128ZM251.725 131.28L245.557 145.272C245.013 146.568 244.373 147.48 243.637 148.008C242.917 148.536 242.045 148.8 241.021 148.8C240.397 148.8 239.789 148.696 239.197 148.488C238.621 148.296 238.141 148.008 237.757 147.624L238.741 145.896C239.397 146.52 240.157 146.832 241.021 146.832C241.581 146.832 242.045 146.68 242.413 146.376C242.797 146.088 243.141 145.584 243.445 144.864L243.853 143.976L238.237 131.28H240.637L245.077 141.456L249.469 131.28H251.725ZM265.868 131.28V144H263.564V133.296H256.388V144H254.084V131.28H265.868ZM282.11 131.28V144H279.806V133.296H272.63V144H270.326V131.28H282.11ZM292.304 135.6C293.904 135.616 295.128 135.984 295.976 136.704C296.824 137.424 297.248 138.44 297.248 139.752C297.248 141.128 296.784 142.192 295.856 142.944C294.944 143.68 293.632 144.04 291.92 144.024L286.568 144V131.28H288.872V135.576L292.304 135.6ZM299.144 131.28H301.448V144H299.144V131.28ZM291.752 142.272C292.792 142.288 293.576 142.08 294.104 141.648C294.648 141.216 294.92 140.576 294.92 139.728C294.92 138.896 294.656 138.288 294.128 137.904C293.6 137.52 292.808 137.32 291.752 137.304L288.872 137.256V142.248L291.752 142.272ZM131.896 166.4C133.544 166.816 134.368 167.848 134.368 169.496C134.368 170.616 133.944 171.48 133.096 172.088C132.264 172.696 131.016 173 129.352 173H123.232V160.28H129.136C130.64 160.28 131.816 160.568 132.664 161.144C133.512 161.704 133.936 162.504 133.936 163.544C133.936 164.216 133.752 164.8 133.384 165.296C133.032 165.776 132.536 166.144 131.896 166.4ZM125.488 165.752H128.944C129.824 165.752 130.488 165.592 130.936 165.272C131.4 164.952 131.632 164.488 131.632 163.88C131.632 162.664 130.736 162.056 128.944 162.056H125.488V165.752ZM129.184 171.224C130.144 171.224 130.864 171.072 131.344 170.768C131.824 170.464 132.064 169.992 132.064 169.352C132.064 168.696 131.84 168.208 131.392 167.888C130.96 167.568 130.272 167.408 129.328 167.408H125.488V171.224H129.184ZM149.964 173.144C148.668 173.144 147.508 172.864 146.484 172.304C145.476 171.744 144.684 170.976 144.108 170C143.532 169.008 143.244 167.888 143.244 166.64C143.244 165.392 143.532 164.28 144.108 163.304C144.684 162.312 145.476 161.544 146.484 161C147.508 160.44 148.668 160.16 149.964 160.16C151.116 160.16 152.14 160.392 153.036 160.856C153.948 161.32 154.652 161.992 155.148 162.872L153.396 164C152.996 163.392 152.5 162.936 151.908 162.632C151.316 162.328 150.66 162.176 149.94 162.176C149.108 162.176 148.356 162.36 147.684 162.728C147.028 163.096 146.508 163.624 146.124 164.312C145.756 164.984 145.572 165.76 145.572 166.64C145.572 167.536 145.756 168.328 146.124 169.016C146.508 169.688 147.028 170.208 147.684 170.576C148.356 170.944 149.108 171.128 149.94 171.128C150.66 171.128 151.316 170.976 151.908 170.672C152.5 170.368 152.996 169.912 153.396 169.304L155.148 170.408C154.652 171.288 153.948 171.968 153.036 172.448C152.14 172.912 151.116 173.144 149.964 173.144ZM163.391 173.144C162.127 173.144 160.991 172.864 159.983 172.304C158.975 171.744 158.183 170.976 157.607 170C157.047 169.008 156.767 167.888 156.767 166.64C156.767 165.392 157.047 164.28 157.607 163.304C158.183 162.312 158.975 161.544 159.983 161C160.991 160.44 162.127 160.16 163.391 160.16C164.655 160.16 165.783 160.44 166.775 161C167.783 161.544 168.567 162.312 169.127 163.304C169.703 164.28 169.991 165.392 169.991 166.64C169.991 167.888 169.703 169.008 169.127 170C168.567 170.976 167.783 171.744 166.775 172.304C165.783 172.864 164.655 173.144 163.391 173.144ZM163.391 171.128C164.207 171.128 164.935 170.944 165.575 170.576C166.231 170.192 166.743 169.664 167.111 168.992C167.479 168.304 167.663 167.52 167.663 166.64C167.663 165.76 167.479 164.984 167.111 164.312C166.743 163.624 166.231 163.096 165.575 162.728C164.935 162.36 164.207 162.176 163.391 162.176C162.575 162.176 161.839 162.36 161.183 162.728C160.543 163.096 160.031 163.624 159.647 164.312C159.279 164.984 159.095 165.76 159.095 166.64C159.095 167.52 159.279 168.304 159.647 168.992C160.031 169.664 160.543 170.192 161.183 170.576C161.839 170.944 162.575 171.128 163.391 171.128ZM186.902 170.984V176.048H184.718V173H173.318V160.28H175.622V170.984H182.582V160.28H184.886V170.984H186.902ZM189.888 160.28H192.192V169.544L199.992 160.28H202.08V173H199.776V163.736L192 173H189.888V160.28ZM211.088 160.16C212.848 160.16 214.192 160.592 215.12 161.456C216.064 162.32 216.536 163.608 216.536 165.32V173H214.352V171.32C213.968 171.912 213.416 172.368 212.696 172.688C211.992 172.992 211.152 173.144 210.176 173.144C208.752 173.144 207.608 172.8 206.744 172.112C205.896 171.424 205.472 170.52 205.472 169.4C205.472 168.28 205.88 167.384 206.696 166.712C207.512 166.024 208.808 165.68 210.584 165.68H214.232V165.224C214.232 164.232 213.944 163.472 213.368 162.944C212.792 162.416 211.944 162.152 210.824 162.152C210.072 162.152 209.336 162.28 208.616 162.536C207.896 162.776 207.288 163.104 206.792 163.52L205.832 161.792C206.488 161.264 207.272 160.864 208.184 160.592C209.096 160.304 210.064 160.16 211.088 160.16ZM210.56 171.368C211.44 171.368 212.2 171.176 212.84 170.792C213.48 170.392 213.944 169.832 214.232 169.112V167.336H210.68C208.728 167.336 207.752 167.992 207.752 169.304C207.752 169.944 208 170.448 208.496 170.816C208.992 171.184 209.68 171.368 210.56 171.368ZM231.605 160.28V173H229.301V162.296H223.829L223.685 165.128C223.605 166.84 223.453 168.272 223.229 169.424C223.005 170.56 222.637 171.472 222.125 172.16C221.613 172.848 220.901 173.192 219.989 173.192C219.573 173.192 219.101 173.12 218.573 172.976L218.717 171.032C218.925 171.08 219.117 171.104 219.293 171.104C219.933 171.104 220.413 170.824 220.733 170.264C221.053 169.704 221.261 169.04 221.357 168.272C221.453 167.504 221.541 166.408 221.621 164.984L221.837 160.28H231.605ZM241.94 164.6C243.556 164.616 244.788 164.984 245.636 165.704C246.484 166.424 246.908 167.44 246.908 168.752C246.908 170.128 246.444 171.192 245.516 171.944C244.604 172.68 243.292 173.04 241.58 173.024L236.06 173V160.28H238.364V164.576L241.94 164.6ZM241.388 171.272C242.428 171.288 243.212 171.08 243.74 170.648C244.284 170.216 244.556 169.576 244.556 168.728C244.556 167.896 244.292 167.288 243.764 166.904C243.252 166.52 242.46 166.32 241.388 166.304L238.364 166.256V171.248L241.388 171.272ZM249.865 160.28H252.169V165.68H259.417V160.28H261.721V173H259.417V167.672H252.169V173H249.865V160.28ZM271.937 164.6C273.537 164.616 274.761 164.984 275.609 165.704C276.457 166.424 276.881 167.44 276.881 168.752C276.881 170.128 276.417 171.192 275.489 171.944C274.577 172.68 273.265 173.04 271.553 173.024L266.201 173V160.28H268.505V164.576L271.937 164.6ZM278.777 160.28H281.081V173H278.777V160.28ZM271.385 171.272C272.425 171.288 273.209 171.08 273.737 170.648C274.281 170.216 274.553 169.576 274.553 168.728C274.553 167.896 274.289 167.288 273.761 166.904C273.233 166.52 272.441 166.32 271.385 166.304L268.505 166.256V171.248L271.385 171.272ZM293.504 173L289.832 168.128L286.112 173H283.544L288.56 166.496L283.784 160.28H286.352L289.856 164.864L293.336 160.28H295.856L291.056 166.496L296.12 173H293.504ZM310.534 173.144C309.238 173.144 308.078 172.864 307.054 172.304C306.046 171.744 305.254 170.976 304.678 170C304.102 169.008 303.814 167.888 303.814 166.64C303.814 165.392 304.102 164.28 304.678 163.304C305.254 162.312 306.046 161.544 307.054 161C308.078 160.44 309.238 160.16 310.534 160.16C311.686 160.16 312.71 160.392 313.606 160.856C314.518 161.32 315.222 161.992 315.718 162.872L313.966 164C313.566 163.392 313.07 162.936 312.478 162.632C311.886 162.328 311.23 162.176 310.51 162.176C309.678 162.176 308.926 162.36 308.254 162.728C307.598 163.096 307.078 163.624 306.694 164.312C306.326 164.984 306.142 165.76 306.142 166.64C306.142 167.536 306.326 168.328 306.694 169.016C307.078 169.688 307.598 170.208 308.254 170.576C308.926 170.944 309.678 171.128 310.51 171.128C311.23 171.128 311.886 170.976 312.478 170.672C313.07 170.368 313.566 169.912 313.966 169.304L315.718 170.408C315.222 171.288 314.518 171.968 313.606 172.448C312.71 172.912 311.686 173.144 310.534 173.144ZM330.009 166.712C330.009 166.888 329.993 167.12 329.961 167.408H319.641C319.785 168.528 320.273 169.432 321.105 170.12C321.953 170.792 323.001 171.128 324.249 171.128C325.769 171.128 326.993 170.616 327.921 169.592L329.193 171.08C328.617 171.752 327.897 172.264 327.033 172.616C326.185 172.968 325.233 173.144 324.177 173.144C322.833 173.144 321.641 172.872 320.601 172.328C319.561 171.768 318.753 170.992 318.177 170C317.617 169.008 317.337 167.888 317.337 166.64C317.337 165.408 317.609 164.296 318.153 163.304C318.713 162.312 319.473 161.544 320.433 161C321.409 160.44 322.505 160.16 323.721 160.16C324.937 160.16 326.017 160.44 326.961 161C327.921 161.544 328.665 162.312 329.193 163.304C329.737 164.296 330.009 165.432 330.009 166.712ZM323.721 162.104C322.617 162.104 321.689 162.44 320.937 163.112C320.201 163.784 319.769 164.664 319.641 165.752H327.801C327.673 164.68 327.233 163.808 326.481 163.136C325.745 162.448 324.825 162.104 323.721 162.104ZM342.525 162.296H337.868V173H335.565V162.296H330.909V160.28H342.525V162.296ZM354.87 160.28V173H352.806V168.968H349.11H348.846L346.062 173H343.59L346.686 168.656C345.726 168.368 344.99 167.896 344.478 167.24C343.966 166.568 343.71 165.736 343.71 164.744C343.71 163.288 344.206 162.184 345.198 161.432C346.19 160.664 347.558 160.28 349.302 160.28H354.87ZM346.062 164.816C346.062 165.664 346.326 166.296 346.854 166.712C347.398 167.112 348.206 167.312 349.278 167.312H352.806V162.296H349.374C347.166 162.296 346.062 163.136 346.062 164.816ZM367.309 173L363.637 168.128L359.917 173H357.349L362.365 166.496L357.589 160.28H360.157L363.661 164.864L367.141 160.28H369.661L364.861 166.496L369.925 173H367.309Z" fill="white"/>
<circle cx="35.5" cy="264.5" r="32.5" fill="#A56492" fill-opacity="0.65"/>
<path fill-rule="evenodd" clip-rule="evenodd" d="M68.4643 235H40.5714L38.7964 235.761L35.5 239.006L32.2036 235.761L30.4286 235H2.53571L0 237.536V288.25L2.53571 290.786H29.3636L33.725 295.096H37.275L41.6364 290.786H68.4643L71 288.25V237.536L68.4643 235ZM32.9643 287.337L32.0514 286.475L30.4286 285.714H5.07143V240.071H29.3636L33.1164 243.824L32.9643 287.337ZM65.9286 285.714H40.5714L38.7964 286.475L38.0864 287.134V243.621L41.6364 240.071H65.9286V285.714ZM25.3571 250.214H10.1429V255.286H25.3571V250.214ZM25.3571 270.5H10.1429V275.571H25.3571V270.5ZM10.1429 260.357H25.3571V265.429H10.1429V260.357ZM60.8571 250.214H45.6429V255.286H60.8571V250.214ZM45.6429 260.357H60.8571V265.429H45.6429V260.357ZM45.6429 270.5H60.8571V275.571H45.6429V270.5Z" fill="#F8F8F8"/>
<g clip-path="url(#clip0_14_15)">
<path d="M21.8612 249.006C20.1212 249.073 18.5482 249.694 17.7072 250.536C17.6143 250.629 17.504 250.703 17.3826 250.753C17.2613 250.803 17.1312 250.829 16.9998 250.829C16.8685 250.829 16.7384 250.803 16.6171 250.753C16.4958 250.703 16.3855 250.629 16.2927 250.536C16.1999 250.443 16.1262 250.333 16.076 250.211C16.0258 250.09 16 249.96 16 249.829C16 249.697 16.026 249.567 16.0763 249.446C16.1266 249.325 16.2003 249.214 16.2932 249.121C17.5902 247.824 19.7022 247.088 21.7832 247.007C23.8782 246.926 26.1652 247.499 27.7672 249.101C27.9547 249.289 28.06 249.544 28.0599 249.809C28.0598 250.074 27.9543 250.328 27.7667 250.516C27.5791 250.703 27.3246 250.809 27.0593 250.809C26.7941 250.809 26.5397 250.703 26.3522 250.515C25.2622 249.424 23.5882 248.938 21.8612 249.005V249.006Z" fill="#F8F8F8"/>
<path fill-rule="evenodd" clip-rule="evenodd" d="M38.461 268.271C40.7188 264.397 41.5272 259.848 40.7419 255.434C38.9208 245.106 29.073 238.211 18.7451 240.032C8.41727 241.853 1.5218 251.7 3.34288 262.028C5.16396 272.356 15.0117 279.252 25.3396 277.431C29.9354 276.62 33.8506 274.221 36.6222 270.897L36.6299 274.17L49.344 283.073L54.2537 276.061L41.5396 267.158L38.461 268.271ZM24.5787 273.115C32.5231 271.715 37.8274 264.139 36.4266 256.195C35.0258 248.25 27.4505 242.946 19.506 244.347C11.5616 245.748 6.25733 253.323 7.65815 261.267C9.05896 269.212 16.6343 274.516 24.5787 273.115Z" fill="#DDDDDD"/>
<path d="M48.0666 282.249L53.0487 275.133L55.377 276.764C56.6871 277.681 57.0054 279.487 56.0879 280.795L54.4263 283.168C53.509 284.478 51.7034 284.797 50.3948 283.879L48.0666 282.249Z" fill="#F8F8F8"/>
</g>
<path d="M123.616 237.2H136.288V239.24H125.992V244.04H131.224C133.224 244.04 134.744 244.456 135.784 245.288C136.824 246.12 137.344 247.32 137.344 248.888C137.344 250.536 136.776 251.8 135.64 252.68C134.52 253.56 132.912 254 130.816 254H123.616V237.2ZM130.72 252.104C132.096 252.104 133.144 251.84 133.864 251.312C134.584 250.784 134.944 250.008 134.944 248.984C134.944 246.952 133.536 245.936 130.72 245.936H125.992V252.104H130.72ZM152.283 247.712C152.283 247.888 152.267 248.12 152.235 248.408H141.915C142.059 249.528 142.547 250.432 143.379 251.12C144.227 251.792 145.275 252.128 146.523 252.128C148.043 252.128 149.267 251.616 150.195 250.592L151.467 252.08C150.891 252.752 150.171 253.264 149.307 253.616C148.459 253.968 147.507 254.144 146.451 254.144C145.107 254.144 143.915 253.872 142.875 253.328C141.835 252.768 141.027 251.992 140.451 251C139.891 250.008 139.611 248.888 139.611 247.64C139.611 246.408 139.883 245.296 140.427 244.304C140.987 243.312 141.747 242.544 142.707 242C143.683 241.44 144.779 241.16 145.995 241.16C147.211 241.16 148.291 241.44 149.235 242C150.195 242.544 150.939 243.312 151.467 244.304C152.011 245.296 152.283 246.432 152.283 247.712ZM145.995 243.104C144.891 243.104 143.963 243.44 143.211 244.112C142.475 244.784 142.043 245.664 141.915 246.752H150.075C149.947 245.68 149.507 244.808 148.755 244.136C148.019 243.448 147.099 243.104 145.995 243.104ZM161.401 254.144C160.105 254.144 158.945 253.864 157.921 253.304C156.913 252.744 156.121 251.976 155.545 251C154.969 250.008 154.681 248.888 154.681 247.64C154.681 246.392 154.969 245.28 155.545 244.304C156.121 243.312 156.913 242.544 157.921 242C158.945 241.44 160.105 241.16 161.401 241.16C162.553 241.16 163.577 241.392 164.473 241.856C165.385 242.32 166.089 242.992 166.585 243.872L164.833 245C164.433 244.392 163.937 243.936 163.345 243.632C162.753 243.328 162.097 243.176 161.377 243.176C160.545 243.176 159.793 243.36 159.121 243.728C158.465 244.096 157.945 244.624 157.561 245.312C157.193 245.984 157.009 246.76 157.009 247.64C157.009 248.536 157.193 249.328 157.561 250.016C157.945 250.688 158.465 251.208 159.121 251.576C159.793 251.944 160.545 252.128 161.377 252.128C162.097 252.128 162.753 251.976 163.345 251.672C163.937 251.368 164.433 250.912 164.833 250.304L166.585 251.408C166.089 252.288 165.385 252.968 164.473 253.448C163.577 253.912 162.553 254.144 161.401 254.144ZM181.352 241.28V254H179.048V243.296H171.872V254H169.568V241.28H181.352ZM196.73 241.28V254H194.426V243.296H188.954L188.81 246.128C188.73 247.84 188.578 249.272 188.354 250.424C188.13 251.56 187.762 252.472 187.25 253.16C186.738 253.848 186.026 254.192 185.114 254.192C184.698 254.192 184.226 254.12 183.698 253.976L183.842 252.032C184.05 252.08 184.242 252.104 184.418 252.104C185.058 252.104 185.538 251.824 185.858 251.264C186.178 250.704 186.386 250.04 186.482 249.272C186.578 248.504 186.666 247.408 186.746 245.984L186.962 241.28H196.73ZM205.721 241.16C207.481 241.16 208.825 241.592 209.753 242.456C210.697 243.32 211.169 244.608 211.169 246.32V254H208.985V252.32C208.601 252.912 208.049 253.368 207.329 253.688C206.625 253.992 205.785 254.144 204.809 254.144C203.385 254.144 202.241 253.8 201.377 253.112C200.529 252.424 200.105 251.52 200.105 250.4C200.105 249.28 200.513 248.384 201.329 247.712C202.145 247.024 203.441 246.68 205.217 246.68H208.865V246.224C208.865 245.232 208.577 244.472 208.001 243.944C207.425 243.416 206.577 243.152 205.457 243.152C204.705 243.152 203.969 243.28 203.249 243.536C202.529 243.776 201.921 244.104 201.425 244.52L200.465 242.792C201.121 242.264 201.905 241.864 202.817 241.592C203.729 241.304 204.697 241.16 205.721 241.16ZM205.193 252.368C206.073 252.368 206.833 252.176 207.473 251.792C208.113 251.392 208.577 250.832 208.865 250.112V248.336H205.313C203.361 248.336 202.385 248.992 202.385 250.304C202.385 250.944 202.633 251.448 203.129 251.816C203.625 252.184 204.313 252.368 205.193 252.368ZM224.798 243.296H220.142V254H217.838V243.296H213.182V241.28H224.798V243.296ZM227.154 241.28H229.458V246.68H236.706V241.28H239.01V254H236.706V248.672H229.458V254H227.154V241.28ZM248.938 254.144C247.674 254.144 246.538 253.864 245.53 253.304C244.522 252.744 243.73 251.976 243.154 251C242.594 250.008 242.314 248.888 242.314 247.64C242.314 246.392 242.594 245.28 243.154 244.304C243.73 243.312 244.522 242.544 245.53 242C246.538 241.44 247.674 241.16 248.938 241.16C250.202 241.16 251.33 241.44 252.322 242C253.33 242.544 254.114 243.312 254.674 244.304C255.25 245.28 255.538 246.392 255.538 247.64C255.538 248.888 255.25 250.008 254.674 251C254.114 251.976 253.33 252.744 252.322 253.304C251.33 253.864 250.202 254.144 248.938 254.144ZM248.938 252.128C249.754 252.128 250.482 251.944 251.122 251.576C251.778 251.192 252.29 250.664 252.658 249.992C253.026 249.304 253.21 248.52 253.21 247.64C253.21 246.76 253.026 245.984 252.658 245.312C252.29 244.624 251.778 244.096 251.122 243.728C250.482 243.36 249.754 243.176 248.938 243.176C248.122 243.176 247.386 243.36 246.73 243.728C246.09 244.096 245.578 244.624 245.194 245.312C244.826 245.984 244.642 246.76 244.642 247.64C244.642 248.52 244.826 249.304 245.194 249.992C245.578 250.664 246.09 251.192 246.73 251.576C247.386 251.944 248.122 252.128 248.938 252.128ZM270.361 247.712C270.361 247.888 270.345 248.12 270.313 248.408H259.993C260.137 249.528 260.625 250.432 261.457 251.12C262.305 251.792 263.353 252.128 264.601 252.128C266.121 252.128 267.345 251.616 268.273 250.592L269.545 252.08C268.969 252.752 268.249 253.264 267.385 253.616C266.537 253.968 265.585 254.144 264.529 254.144C263.185 254.144 261.993 253.872 260.953 253.328C259.913 252.768 259.105 251.992 258.529 251C257.969 250.008 257.689 248.888 257.689 247.64C257.689 246.408 257.961 245.296 258.505 244.304C259.065 243.312 259.825 242.544 260.785 242C261.761 241.44 262.857 241.16 264.073 241.16C265.289 241.16 266.369 241.44 267.313 242C268.273 242.544 269.017 243.312 269.545 244.304C270.089 245.296 270.361 246.432 270.361 247.712ZM264.073 243.104C262.969 243.104 262.041 243.44 261.289 244.112C260.553 244.784 260.121 245.664 259.993 246.752H268.153C268.025 245.68 267.585 244.808 266.833 244.136C266.097 243.448 265.177 243.104 264.073 243.104ZM132.712 272.296H128.056V283H125.752V272.296H121.096V270.28H132.712V272.296ZM146.001 276.712C146.001 276.888 145.985 277.12 145.953 277.408H135.633C135.777 278.528 136.265 279.432 137.097 280.12C137.945 280.792 138.993 281.128 140.241 281.128C141.761 281.128 142.985 280.616 143.913 279.592L145.185 281.08C144.609 281.752 143.889 282.264 143.025 282.616C142.177 282.968 141.225 283.144 140.169 283.144C138.825 283.144 137.633 282.872 136.593 282.328C135.553 281.768 134.745 280.992 134.169 280C133.609 279.008 133.329 277.888 133.329 276.64C133.329 275.408 133.601 274.296 134.145 273.304C134.705 272.312 135.465 271.544 136.425 271C137.401 270.44 138.497 270.16 139.713 270.16C140.929 270.16 142.009 270.44 142.953 271C143.913 271.544 144.657 272.312 145.185 273.304C145.729 274.296 146.001 275.432 146.001 276.712ZM139.713 272.104C138.609 272.104 137.681 272.44 136.929 273.112C136.193 273.784 135.761 274.664 135.633 275.752H143.793C143.665 274.68 143.225 273.808 142.473 273.136C141.737 272.448 140.817 272.104 139.713 272.104ZM149.576 270.28H151.88V275.68H159.128V270.28H161.432V283H159.128V277.672H151.88V283H149.576V270.28ZM178.848 280.984V285.952H176.688V283H166.056V285.952H163.872V280.984H164.544C165.36 280.936 165.92 280.36 166.224 279.256C166.528 278.152 166.736 276.592 166.848 274.576L167.04 270.28H176.904V280.984H178.848ZM168.96 274.744C168.896 276.344 168.76 277.672 168.552 278.728C168.36 279.768 168 280.52 167.472 280.984H174.6V272.296H169.08L168.96 274.744ZM193.345 276.712C193.345 276.888 193.329 277.12 193.297 277.408H182.977C183.121 278.528 183.609 279.432 184.441 280.12C185.289 280.792 186.337 281.128 187.585 281.128C189.105 281.128 190.329 280.616 191.257 279.592L192.529 281.08C191.953 281.752 191.233 282.264 190.369 282.616C189.521 282.968 188.569 283.144 187.513 283.144C186.169 283.144 184.977 282.872 183.937 282.328C182.897 281.768 182.089 280.992 181.513 280C180.953 279.008 180.673 277.888 180.673 276.64C180.673 275.408 180.945 274.296 181.489 273.304C182.049 272.312 182.809 271.544 183.769 271C184.745 270.44 185.841 270.16 187.057 270.16C188.273 270.16 189.353 270.44 190.297 271C191.257 271.544 192.001 272.312 192.529 273.304C193.073 274.296 193.345 275.432 193.345 276.712ZM187.057 272.104C185.953 272.104 185.025 272.44 184.273 273.112C183.537 273.784 183.105 274.664 182.977 275.752H191.137C191.009 274.68 190.569 273.808 189.817 273.136C189.081 272.448 188.161 272.104 187.057 272.104ZM203.664 270.16C204.896 270.16 206 270.432 206.976 270.976C207.952 271.52 208.712 272.28 209.256 273.256C209.816 274.232 210.096 275.36 210.096 276.64C210.096 277.92 209.816 279.056 209.256 280.048C208.712 281.024 207.952 281.784 206.976 282.328C206 282.872 204.896 283.144 203.664 283.144C202.752 283.144 201.912 282.968 201.144 282.616C200.392 282.264 199.752 281.752 199.224 281.08V287.656H196.92V270.28H199.128V272.296C199.64 271.592 200.288 271.064 201.072 270.712C201.856 270.344 202.72 270.16 203.664 270.16ZM203.472 281.128C204.288 281.128 205.016 280.944 205.656 280.576C206.312 280.192 206.824 279.664 207.192 278.992C207.576 278.304 207.768 277.52 207.768 276.64C207.768 275.76 207.576 274.984 207.192 274.312C206.824 273.624 206.312 273.096 205.656 272.728C205.016 272.36 204.288 272.176 203.472 272.176C202.672 272.176 201.944 272.368 201.288 272.752C200.648 273.12 200.136 273.64 199.752 274.312C199.384 274.984 199.2 275.76 199.2 276.64C199.2 277.52 199.384 278.304 199.752 278.992C200.12 279.664 200.632 280.192 201.288 280.576C201.944 280.944 202.672 281.128 203.472 281.128ZM213.443 270.28H215.747V275.68H222.995V270.28H225.299V283H222.995V277.672H215.747V283H213.443V270.28ZM235.227 283.144C233.963 283.144 232.827 282.864 231.819 282.304C230.811 281.744 230.019 280.976 229.443 280C228.883 279.008 228.603 277.888 228.603 276.64C228.603 275.392 228.883 274.28 229.443 273.304C230.019 272.312 230.811 271.544 231.819 271C232.827 270.44 233.963 270.16 235.227 270.16C236.491 270.16 237.619 270.44 238.611 271C239.619 271.544 240.403 272.312 240.963 273.304C241.539 274.28 241.827 275.392 241.827 276.64C241.827 277.888 241.539 279.008 240.963 280C240.403 280.976 239.619 281.744 238.611 282.304C237.619 282.864 236.491 283.144 235.227 283.144ZM235.227 281.128C236.043 281.128 236.771 280.944 237.411 280.576C238.067 280.192 238.579 279.664 238.947 278.992C239.315 278.304 239.499 277.52 239.499 276.64C239.499 275.76 239.315 274.984 238.947 274.312C238.579 273.624 238.067 273.096 237.411 272.728C236.771 272.36 236.043 272.176 235.227 272.176C234.411 272.176 233.675 272.36 233.019 272.728C232.379 273.096 231.867 273.624 231.483 274.312C231.115 274.984 230.931 275.76 230.931 276.64C230.931 277.52 231.115 278.304 231.483 278.992C231.867 279.664 232.379 280.192 233.019 280.576C233.675 280.944 234.411 281.128 235.227 281.128ZM256.65 276.712C256.65 276.888 256.634 277.12 256.602 277.408H246.282C246.426 278.528 246.914 279.432 247.746 280.12C248.594 280.792 249.642 281.128 250.89 281.128C252.41 281.128 253.634 280.616 254.562 279.592L255.834 281.08C255.258 281.752 254.538 282.264 253.674 282.616C252.826 282.968 251.874 283.144 250.818 283.144C249.474 283.144 248.282 282.872 247.242 282.328C246.202 281.768 245.394 280.992 244.818 280C244.258 279.008 243.978 277.888 243.978 276.64C243.978 275.408 244.25 274.296 244.794 273.304C245.354 272.312 246.114 271.544 247.074 271C248.05 270.44 249.146 270.16 250.362 270.16C251.578 270.16 252.658 270.44 253.602 271C254.562 271.544 255.306 272.312 255.834 273.304C256.378 274.296 256.65 275.432 256.65 276.712ZM250.362 272.104C249.258 272.104 248.33 272.44 247.578 273.112C246.842 273.784 246.41 274.664 246.282 275.752H254.442C254.314 274.68 253.874 273.808 253.122 273.136C252.386 272.448 251.466 272.104 250.362 272.104ZM272.214 283.144C270.918 283.144 269.758 282.864 268.734 282.304C267.726 281.744 266.934 280.976 266.358 280C265.782 279.008 265.494 277.888 265.494 276.64C265.494 275.392 265.782 274.28 266.358 273.304C266.934 272.312 267.726 271.544 268.734 271C269.758 270.44 270.918 270.16 272.214 270.16C273.366 270.16 274.39 270.392 275.286 270.856C276.198 271.32 276.902 271.992 277.398 272.872L275.646 274C275.246 273.392 274.75 272.936 274.158 272.632C273.566 272.328 272.91 272.176 272.19 272.176C271.358 272.176 270.606 272.36 269.934 272.728C269.278 273.096 268.758 273.624 268.374 274.312C268.006 274.984 267.822 275.76 267.822 276.64C267.822 277.536 268.006 278.328 268.374 279.016C268.758 279.688 269.278 280.208 269.934 280.576C270.606 280.944 271.358 281.128 272.19 281.128C272.91 281.128 273.566 280.976 274.158 280.672C274.75 280.368 275.246 279.912 275.646 279.304L277.398 280.408C276.902 281.288 276.198 281.968 275.286 282.448C274.39 282.912 273.366 283.144 272.214 283.144ZM285.641 283.144C284.377 283.144 283.241 282.864 282.233 282.304C281.225 281.744 280.433 280.976 279.857 280C279.297 279.008 279.017 277.888 279.017 276.64C279.017 275.392 279.297 274.28 279.857 273.304C280.433 272.312 281.225 271.544 282.233 271C283.241 270.44 284.377 270.16 285.641 270.16C286.905 270.16 288.033 270.44 289.025 271C290.033 271.544 290.817 272.312 291.377 273.304C291.953 274.28 292.241 275.392 292.241 276.64C292.241 277.888 291.953 279.008 291.377 280C290.817 280.976 290.033 281.744 289.025 282.304C288.033 282.864 286.905 283.144 285.641 283.144ZM285.641 281.128C286.457 281.128 287.185 280.944 287.825 280.576C288.481 280.192 288.993 279.664 289.361 278.992C289.729 278.304 289.913 277.52 289.913 276.64C289.913 275.76 289.729 274.984 289.361 274.312C288.993 273.624 288.481 273.096 287.825 272.728C287.185 272.36 286.457 272.176 285.641 272.176C284.825 272.176 284.089 272.36 283.433 272.728C282.793 273.096 282.281 273.624 281.897 274.312C281.529 274.984 281.345 275.76 281.345 276.64C281.345 277.52 281.529 278.304 281.897 278.992C282.281 279.664 282.793 280.192 283.433 280.576C284.089 280.944 284.825 281.128 285.641 281.128ZM307.352 270.28V283H305.048V272.296H297.872V283H295.568V270.28H307.352ZM318.554 270.16C319.786 270.16 320.89 270.432 321.866 270.976C322.842 271.52 323.602 272.28 324.146 273.256C324.706 274.232 324.986 275.36 324.986 276.64C324.986 277.92 324.706 279.056 324.146 280.048C323.602 281.024 322.842 281.784 321.866 282.328C320.89 282.872 319.786 283.144 318.554 283.144C317.642 283.144 316.802 282.968 316.034 282.616C315.282 282.264 314.642 281.752 314.114 281.08V287.656H311.81V270.28H314.018V272.296C314.53 271.592 315.178 271.064 315.962 270.712C316.746 270.344 317.61 270.16 318.554 270.16ZM318.362 281.128C319.178 281.128 319.906 280.944 320.546 280.576C321.202 280.192 321.714 279.664 322.082 278.992C322.466 278.304 322.658 277.52 322.658 276.64C322.658 275.76 322.466 274.984 322.082 274.312C321.714 273.624 321.202 273.096 320.546 272.728C319.906 272.36 319.178 272.176 318.362 272.176C317.562 272.176 316.834 272.368 316.178 272.752C315.538 273.12 315.026 273.64 314.642 274.312C314.274 274.984 314.09 275.76 314.09 276.64C314.09 277.52 314.274 278.304 314.642 278.992C315.01 279.664 315.522 280.192 316.178 280.576C316.834 280.944 317.562 281.128 318.362 281.128ZM333.782 283.144C332.518 283.144 331.382 282.864 330.374 282.304C329.366 281.744 328.574 280.976 327.998 280C327.438 279.008 327.158 277.888 327.158 276.64C327.158 275.392 327.438 274.28 327.998 273.304C328.574 272.312 329.366 271.544 330.374 271C331.382 270.44 332.518 270.16 333.782 270.16C335.046 270.16 336.174 270.44 337.166 271C338.174 271.544 338.958 272.312 339.518 273.304C340.094 274.28 340.382 275.392 340.382 276.64C340.382 277.888 340.094 279.008 339.518 280C338.958 280.976 338.174 281.744 337.166 282.304C336.174 282.864 335.046 283.144 333.782 283.144ZM333.782 281.128C334.598 281.128 335.326 280.944 335.966 280.576C336.622 280.192 337.134 279.664 337.502 278.992C337.87 278.304 338.054 277.52 338.054 276.64C338.054 275.76 337.87 274.984 337.502 274.312C337.134 273.624 336.622 273.096 335.966 272.728C335.326 272.36 334.598 272.176 333.782 272.176C332.966 272.176 332.23 272.36 331.574 272.728C330.934 273.096 330.422 273.624 330.038 274.312C329.67 274.984 329.486 275.76 329.486 276.64C329.486 277.52 329.67 278.304 330.038 278.992C330.422 279.664 330.934 280.192 331.574 280.576C332.23 280.944 332.966 281.128 333.782 281.128ZM352.373 276.4C354.021 276.816 354.845 277.848 354.845 279.496C354.845 280.616 354.421 281.48 353.573 282.088C352.741 282.696 351.493 283 349.829 283H343.709V270.28H349.613C351.117 270.28 352.293 270.568 353.141 271.144C353.989 271.704 354.413 272.504 354.413 273.544C354.413 274.216 354.229 274.8 353.861 275.296C353.509 275.776 353.013 276.144 352.373 276.4ZM345.965 275.752H349.421C350.301 275.752 350.965 275.592 351.413 275.272C351.877 274.952 352.109 274.488 352.109 273.88C352.109 272.664 351.213 272.056 349.421 272.056H345.965V275.752ZM349.661 281.224C350.621 281.224 351.341 281.072 351.821 280.768C352.301 280.464 352.541 279.992 352.541 279.352C352.541 278.696 352.317 278.208 351.869 277.888C351.437 277.568 350.749 277.408 349.805 277.408H345.965V281.224H349.661ZM363.899 283.144C362.635 283.144 361.499 282.864 360.491 282.304C359.483 281.744 358.691 280.976 358.115 280C357.555 279.008 357.275 277.888 357.275 276.64C357.275 275.392 357.555 274.28 358.115 273.304C358.691 272.312 359.483 271.544 360.491 271C361.499 270.44 362.635 270.16 363.899 270.16C365.163 270.16 366.291 270.44 367.283 271C368.291 271.544 369.075 272.312 369.635 273.304C370.211 274.28 370.499 275.392 370.499 276.64C370.499 277.888 370.211 279.008 369.635 280C369.075 280.976 368.291 281.744 367.283 282.304C366.291 282.864 365.163 283.144 363.899 283.144ZM363.899 281.128C364.715 281.128 365.443 280.944 366.083 280.576C366.739 280.192 367.251 279.664 367.619 278.992C367.987 278.304 368.171 277.52 368.171 276.64C368.171 275.76 367.987 274.984 367.619 274.312C367.251 273.624 366.739 273.096 366.083 272.728C365.443 272.36 364.715 272.176 363.899 272.176C363.083 272.176 362.347 272.36 361.691 272.728C361.051 273.096 360.539 273.624 360.155 274.312C359.787 274.984 359.603 275.76 359.603 276.64C359.603 277.52 359.787 278.304 360.155 278.992C360.539 279.664 361.051 280.192 361.691 280.576C362.347 280.944 363.083 281.128 363.899 281.128ZM384.972 277.624H382.5V283H380.196V277.624H377.724L374.22 283H371.484L375.852 276.424L371.82 270.28H374.268L377.7 275.656H380.196V270.28H382.5V275.656H384.996L388.428 270.28H390.9L386.868 276.448L391.236 283H388.5L384.972 277.624ZM406.707 280.984V285.952H404.547V283H393.915V285.952H391.731V280.984H392.403C393.219 280.936 393.779 280.36 394.083 279.256C394.387 278.152 394.595 276.592 394.707 274.576L394.899 270.28H404.763V280.984H406.707ZM396.819 274.744C396.755 276.344 396.619 277.672 396.411 278.728C396.219 279.768 395.859 280.52 395.331 280.984H402.459V272.296H396.939L396.819 274.744ZM421.205 276.712C421.205 276.888 421.189 277.12 421.157 277.408H410.837C410.981 278.528 411.469 279.432 412.301 280.12C413.149 280.792 414.197 281.128 415.445 281.128C416.965 281.128 418.189 280.616 419.117 279.592L420.389 281.08C419.813 281.752 419.093 282.264 418.229 282.616C417.381 282.968 416.429 283.144 415.373 283.144C414.029 283.144 412.837 282.872 411.797 282.328C410.757 281.768 409.949 280.992 409.373 280C408.813 279.008 408.533 277.888 408.533 276.64C408.533 275.408 408.805 274.296 409.349 273.304C409.909 272.312 410.669 271.544 411.629 271C412.605 270.44 413.701 270.16 414.917 270.16C416.133 270.16 417.213 270.44 418.157 271C419.117 271.544 419.861 272.312 420.389 273.304C420.933 274.296 421.205 275.432 421.205 276.712ZM414.917 272.104C413.813 272.104 412.885 272.44 412.133 273.112C411.397 273.784 410.965 274.664 410.837 275.752H418.997C418.869 274.68 418.429 273.808 417.677 273.136C416.941 272.448 416.021 272.104 414.917 272.104ZM424.779 270.28H427.083V275.68H434.331V270.28H436.635V283H434.331V277.672H427.083V283H424.779V270.28ZM441.115 270.28H443.419V279.544L451.219 270.28H453.307V283H451.003V273.736L443.227 283H441.115V270.28ZM469.275 276.712C469.275 276.888 469.259 277.12 469.227 277.408H458.907C459.051 278.528 459.539 279.432 460.371 280.12C461.219 280.792 462.267 281.128 463.515 281.128C465.035 281.128 466.259 280.616 467.187 279.592L468.459 281.08C467.883 281.752 467.163 282.264 466.299 282.616C465.451 282.968 464.499 283.144 463.443 283.144C462.099 283.144 460.907 282.872 459.867 282.328C458.827 281.768 458.019 280.992 457.443 280C456.883 279.008 456.603 277.888 456.603 276.64C456.603 275.408 456.875 274.296 457.419 273.304C457.979 272.312 458.739 271.544 459.699 271C460.675 270.44 461.771 270.16 462.987 270.16C464.203 270.16 465.283 270.44 466.227 271C467.187 271.544 467.931 272.312 468.459 273.304C469.003 274.296 469.275 275.432 469.275 276.712ZM462.987 272.104C461.883 272.104 460.955 272.44 460.203 273.112C459.467 273.784 459.035 274.664 458.907 275.752H467.067C466.939 274.68 466.499 273.808 465.747 273.136C465.011 272.448 464.091 272.104 462.987 272.104Z" fill="white"/>
<circle cx="35.5" cy="370.5" r="32.5" fill="#A56492" fill-opacity="0.65"/>
<path d="M35.4538 346.615C37.5506 346.615 39.5615 347.447 41.0441 348.93C42.5267 350.413 43.3597 352.424 43.3597 354.52C43.3597 356.617 42.5267 358.628 41.0441 360.111C39.5615 361.593 37.5506 362.426 35.4538 362.426C33.3566 362.426 31.3453 361.593 29.8623 360.11C28.3793 358.627 27.5462 356.616 27.5462 354.519C27.5462 352.421 28.3793 350.41 29.8623 348.927C31.3453 347.444 33.3566 346.611 35.4538 346.611V346.615ZM35.4538 350.165C34.2986 350.165 33.1907 350.623 32.3738 351.44C31.5569 352.257 31.098 353.365 31.098 354.52C31.098 355.676 31.5569 356.784 32.3738 357.6C33.1907 358.417 34.2986 358.876 35.4538 358.876C36.6095 358.876 37.7179 358.417 38.5351 357.6C39.3523 356.783 39.8115 355.674 39.8115 354.519C39.8115 353.363 39.3523 352.254 38.5351 351.437C37.7179 350.62 36.6095 350.161 35.4538 350.161V350.165ZM10.7068 376.825C10.7068 377.296 10.5198 377.747 10.1869 378.08C9.85401 378.413 9.40253 378.6 8.93178 378.6C8.46102 378.6 8.00954 378.413 7.67666 378.08C7.34378 377.747 7.15678 377.296 7.15678 376.825V368C7.15689 367.13 7.47612 366.291 8.05391 365.641C8.63171 364.991 9.42788 364.576 10.2914 364.475L10.7068 364.45H20.4941C19.9776 365.341 19.6625 366.335 19.5711 367.361L19.5427 368H10.7032V376.825H10.7068ZM62.0895 378.6C62.5602 378.6 63.0117 378.413 63.3446 378.08C63.6775 377.747 63.8645 377.296 63.8645 376.825V368L63.8396 367.588C63.7387 366.724 63.3239 365.927 62.6741 365.348C62.0242 364.77 61.1845 364.45 60.3145 364.45H50.4313C50.9496 365.348 51.2833 366.377 51.3614 367.471L51.3791 368.003H60.3145V376.825C60.3145 377.296 60.5015 377.747 60.8344 378.08C61.1672 378.413 61.6187 378.6 62.0895 378.6ZM44.2827 364.45C45.1527 364.45 45.9924 364.77 46.6423 365.348C47.2921 365.927 47.7069 366.724 47.8078 367.588L47.8291 368V376.825C47.8291 377.296 47.6421 377.747 47.3092 378.08C46.9764 378.413 46.5249 378.6 46.0541 378.6C45.5834 378.6 45.1319 378.413 44.799 378.08C44.4661 377.747 44.2791 377.296 44.2791 376.825V368H26.6427V376.825C26.6427 377.296 26.4557 377.747 26.1228 378.08C25.79 378.413 25.3385 378.6 24.8677 378.6C24.397 378.6 23.9455 378.413 23.6126 378.08C23.2797 377.747 23.0927 377.296 23.0927 376.825V368C23.0928 367.13 23.4121 366.291 23.9899 365.641C24.5677 364.991 25.3638 364.576 26.2274 364.475L26.6427 364.45H44.2791H44.2827ZM59.9524 355.635C59.9524 353.833 59.2367 352.106 57.9628 350.832C56.6889 349.558 54.961 348.842 53.1595 348.842C51.3579 348.842 49.63 349.558 48.3561 350.832C47.0822 352.106 46.3665 353.833 46.3665 355.635C46.3665 357.437 47.0822 359.164 48.3561 360.438C49.63 361.712 51.3579 362.428 53.1595 362.428C54.961 362.428 56.6889 361.712 57.9628 360.438C59.2367 359.164 59.9524 357.437 59.9524 355.635ZM49.9165 355.635C49.9165 354.775 50.2582 353.95 50.8664 353.342C51.4745 352.734 52.2994 352.392 53.1595 352.392C54.0195 352.392 54.8444 352.734 55.4525 353.342C56.0607 353.95 56.4024 354.775 56.4024 355.635C56.4024 356.495 56.0607 357.32 55.4525 357.928C54.8444 358.536 54.0195 358.878 53.1595 358.878C52.2994 358.878 51.4745 358.536 50.8664 357.928C50.2582 357.32 49.9165 356.495 49.9165 355.635ZM17.8068 348.84C19.6084 348.84 21.3362 349.556 22.6101 350.83C23.884 352.104 24.5997 353.832 24.5997 355.633C24.5997 357.435 23.884 359.163 22.6101 360.437C21.3362 361.711 19.6084 362.426 17.8068 362.426C16.0052 362.426 14.2774 361.711 13.0035 360.437C11.7295 359.163 11.0139 357.435 11.0139 355.633C11.0139 353.832 11.7295 352.104 13.0035 350.83C14.2774 349.556 16.0052 348.84 17.8068 348.84ZM17.8068 352.39C16.9467 352.39 16.1218 352.732 15.5137 353.34C14.9055 353.948 14.5639 354.773 14.5639 355.633C14.5639 356.493 14.9055 357.318 15.5137 357.926C16.1218 358.535 16.9467 358.876 17.8068 358.876C18.6669 358.876 19.4917 358.535 20.0999 357.926C20.708 357.318 21.0497 356.493 21.0497 355.633C21.0497 354.773 20.708 353.948 20.0999 353.34C19.4917 352.732 18.6669 352.39 17.8068 352.39ZM8.87498 382.15C8.40422 382.15 7.95274 382.337 7.61986 382.67C7.28698 383.003 7.09998 383.454 7.09998 383.925V387.475C7.09998 389.829 8.03502 392.086 9.6994 393.751C11.3638 395.415 13.6212 396.35 15.975 396.35H55.025C57.3788 396.35 59.6362 395.415 61.3005 393.751C62.9649 392.086 63.9 389.829 63.9 387.475V383.925C63.9 383.454 63.713 383.003 63.3801 382.67C63.0472 382.337 62.5957 382.15 62.125 382.15H8.87498ZM10.65 387.475V385.7H60.35V387.475C60.35 388.887 59.7889 390.242 58.7903 391.24C57.7917 392.239 56.4373 392.8 55.025 392.8H15.975C14.5627 392.8 13.2083 392.239 12.2096 391.24C11.211 390.242 10.65 388.887 10.65 387.475Z" fill="#F8F8F8"/>
<path d="M131.128 368.192C129.448 368.192 127.928 367.824 126.568 367.088C125.224 366.336 124.168 365.312 123.4 364.016C122.632 362.704 122.248 361.232 122.248 359.6C122.248 357.968 122.632 356.504 123.4 355.208C124.168 353.896 125.232 352.872 126.592 352.136C127.952 351.384 129.472 351.008 131.152 351.008C132.464 351.008 133.664 351.232 134.752 351.68C135.84 352.112 136.768 352.76 137.536 353.624L135.976 355.136C134.712 353.808 133.136 353.144 131.248 353.144C130 353.144 128.872 353.424 127.864 353.984C126.856 354.544 126.064 355.32 125.488 356.312C124.928 357.288 124.648 358.384 124.648 359.6C124.648 360.816 124.928 361.92 125.488 362.912C126.064 363.888 126.856 364.656 127.864 365.216C128.872 365.776 130 366.056 131.248 366.056C133.12 366.056 134.696 365.384 135.976 364.04L137.536 365.552C136.768 366.416 135.832 367.072 134.728 367.52C133.64 367.968 132.44 368.192 131.128 368.192ZM145.368 368.144C144.104 368.144 142.968 367.864 141.96 367.304C140.952 366.744 140.16 365.976 139.584 365C139.024 364.008 138.744 362.888 138.744 361.64C138.744 360.392 139.024 359.28 139.584 358.304C140.16 357.312 140.952 356.544 141.96 356C142.968 355.44 144.104 355.16 145.368 355.16C146.632 355.16 147.76 355.44 148.752 356C149.76 356.544 150.544 357.312 151.104 358.304C151.68 359.28 151.968 360.392 151.968 361.64C151.968 362.888 151.68 364.008 151.104 365C150.544 365.976 149.76 366.744 148.752 367.304C147.76 367.864 146.632 368.144 145.368 368.144ZM145.368 366.128C146.184 366.128 146.912 365.944 147.552 365.576C148.208 365.192 148.72 364.664 149.088 363.992C149.456 363.304 149.64 362.52 149.64 361.64C149.64 360.76 149.456 359.984 149.088 359.312C148.72 358.624 148.208 358.096 147.552 357.728C146.912 357.36 146.184 357.176 145.368 357.176C144.552 357.176 143.816 357.36 143.16 357.728C142.52 358.096 142.008 358.624 141.624 359.312C141.256 359.984 141.072 360.76 141.072 361.64C141.072 362.52 141.256 363.304 141.624 363.992C142.008 364.664 142.52 365.192 143.16 365.576C143.816 365.944 144.552 366.128 145.368 366.128ZM161.775 355.712C162.959 355.712 164.015 355.976 164.943 356.504C165.871 357.032 166.591 357.768 167.103 358.712C167.631 359.64 167.895 360.704 167.895 361.904C167.895 363.136 167.615 364.232 167.055 365.192C166.511 366.136 165.735 366.872 164.727 367.4C163.735 367.928 162.599 368.192 161.319 368.192C159.159 368.192 157.487 367.456 156.303 365.984C155.135 364.496 154.551 362.408 154.551 359.72C154.551 357.112 155.087 355.072 156.159 353.6C157.231 352.112 158.871 351.128 161.079 350.648L166.887 349.352L167.223 351.464L161.871 352.616C160.207 352.984 158.967 353.608 158.151 354.488C157.335 355.368 156.871 356.632 156.759 358.28C157.303 357.464 158.007 356.832 158.871 356.384C159.735 355.936 160.703 355.712 161.775 355.712ZM161.367 366.272C162.183 366.272 162.903 366.088 163.527 365.72C164.167 365.352 164.663 364.848 165.015 364.208C165.367 363.552 165.543 362.808 165.543 361.976C165.543 360.712 165.159 359.696 164.391 358.928C163.623 358.16 162.615 357.776 161.367 357.776C160.119 357.776 159.103 358.16 158.319 358.928C157.551 359.696 157.167 360.712 157.167 361.976C157.167 362.808 157.343 363.552 157.695 364.208C158.063 364.848 158.567 365.352 159.207 365.72C159.847 366.088 160.567 366.272 161.367 366.272ZM176.729 368.144C175.433 368.144 174.273 367.864 173.249 367.304C172.241 366.744 171.449 365.976 170.873 365C170.297 364.008 170.009 362.888 170.009 361.64C170.009 360.392 170.297 359.28 170.873 358.304C171.449 357.312 172.241 356.544 173.249 356C174.273 355.44 175.433 355.16 176.729 355.16C177.881 355.16 178.905 355.392 179.801 355.856C180.713 356.32 181.417 356.992 181.913 357.872L180.161 359C179.761 358.392 179.265 357.936 178.673 357.632C178.081 357.328 177.425 357.176 176.705 357.176C175.873 357.176 175.121 357.36 174.449 357.728C173.793 358.096 173.273 358.624 172.889 359.312C172.521 359.984 172.337 360.76 172.337 361.64C172.337 362.536 172.521 363.328 172.889 364.016C173.273 364.688 173.793 365.208 174.449 365.576C175.121 365.944 175.873 366.128 176.705 366.128C177.425 366.128 178.081 365.976 178.673 365.672C179.265 365.368 179.761 364.912 180.161 364.304L181.913 365.408C181.417 366.288 180.713 366.968 179.801 367.448C178.905 367.912 177.881 368.144 176.729 368.144ZM194.212 357.296H189.556V368H187.252V357.296H182.596V355.28H194.212V357.296ZM205.232 361.4C206.88 361.816 207.704 362.848 207.704 364.496C207.704 365.616 207.28 366.48 206.432 367.088C205.6 367.696 204.352 368 202.688 368H196.568V355.28H202.472C203.976 355.28 205.152 355.568 206 356.144C206.848 356.704 207.272 357.504 207.272 358.544C207.272 359.216 207.088 359.8 206.72 360.296C206.368 360.776 205.872 361.144 205.232 361.4ZM198.824 360.752H202.28C203.16 360.752 203.824 360.592 204.272 360.272C204.736 359.952 204.968 359.488 204.968 358.88C204.968 357.664 204.072 357.056 202.28 357.056H198.824V360.752ZM202.52 366.224C203.48 366.224 204.2 366.072 204.68 365.768C205.16 365.464 205.4 364.992 205.4 364.352C205.4 363.696 205.176 363.208 204.728 362.888C204.296 362.568 203.608 362.408 202.664 362.408H198.824V366.224H202.52ZM222.806 361.712C222.806 361.888 222.79 362.12 222.758 362.408H212.438C212.582 363.528 213.07 364.432 213.902 365.12C214.75 365.792 215.798 366.128 217.046 366.128C218.566 366.128 219.79 365.616 220.718 364.592L221.99 366.08C221.414 366.752 220.694 367.264 219.83 367.616C218.982 367.968 218.03 368.144 216.974 368.144C215.63 368.144 214.438 367.872 213.398 367.328C212.358 366.768 211.55 365.992 210.974 365C210.414 364.008 210.134 362.888 210.134 361.64C210.134 360.408 210.406 359.296 210.95 358.304C211.51 357.312 212.27 356.544 213.23 356C214.206 355.44 215.302 355.16 216.518 355.16C217.734 355.16 218.814 355.44 219.758 356C220.718 356.544 221.462 357.312 221.99 358.304C222.534 359.296 222.806 360.432 222.806 361.712ZM216.518 357.104C215.414 357.104 214.486 357.44 213.734 358.112C212.998 358.784 212.566 359.664 212.438 360.752H220.598C220.47 359.68 220.03 358.808 219.278 358.136C218.542 357.448 217.622 357.104 216.518 357.104ZM226.38 355.28H228.684V360.68H235.932V355.28H238.236V368H235.932V362.672H228.684V368H226.38V355.28ZM242.716 355.28H245.02V360.68H252.268V355.28H254.572V368H252.268V362.672H245.02V368H242.716V355.28ZM264.788 359.6C266.388 359.616 267.612 359.984 268.46 360.704C269.308 361.424 269.732 362.44 269.732 363.752C269.732 365.128 269.268 366.192 268.34 366.944C267.428 367.68 266.116 368.04 264.404 368.024L259.052 368V355.28H261.356V359.576L264.788 359.6ZM271.628 355.28H273.932V368H271.628V355.28ZM264.236 366.272C265.276 366.288 266.06 366.08 266.588 365.648C267.132 365.216 267.404 364.576 267.404 363.728C267.404 362.896 267.14 362.288 266.612 361.904C266.084 361.52 265.292 361.32 264.236 361.304L261.356 361.256V366.248L264.236 366.272ZM278.412 355.28H280.716V364.544L288.516 355.28H290.604V368H288.3V358.736L280.524 368H278.412V355.28ZM284.364 353.624C283.18 353.624 282.26 353.344 281.604 352.784C280.948 352.208 280.612 351.384 280.596 350.312H282.156C282.172 350.904 282.372 351.384 282.756 351.752C283.156 352.104 283.684 352.28 284.34 352.28C284.996 352.28 285.524 352.104 285.924 351.752C286.324 351.384 286.532 350.904 286.548 350.312H288.156C288.14 351.384 287.796 352.208 287.124 352.784C286.452 353.344 285.532 353.624 284.364 353.624ZM306.969 368.144C305.705 368.144 304.569 367.864 303.561 367.304C302.553 366.744 301.761 365.976 301.185 365C300.625 364.008 300.345 362.888 300.345 361.64C300.345 360.392 300.625 359.28 301.185 358.304C301.761 357.312 302.553 356.544 303.561 356C304.569 355.44 305.705 355.16 306.969 355.16C308.233 355.16 309.361 355.44 310.353 356C311.361 356.544 312.145 357.312 312.705 358.304C313.281 359.28 313.569 360.392 313.569 361.64C313.569 362.888 313.281 364.008 312.705 365C312.145 365.976 311.361 366.744 310.353 367.304C309.361 367.864 308.233 368.144 306.969 368.144ZM306.969 366.128C307.785 366.128 308.513 365.944 309.153 365.576C309.809 365.192 310.321 364.664 310.689 363.992C311.057 363.304 311.241 362.52 311.241 361.64C311.241 360.76 311.057 359.984 310.689 359.312C310.321 358.624 309.809 358.096 309.153 357.728C308.513 357.36 307.785 357.176 306.969 357.176C306.153 357.176 305.417 357.36 304.761 357.728C304.121 358.096 303.609 358.624 303.225 359.312C302.857 359.984 302.673 360.76 302.673 361.64C302.673 362.52 302.857 363.304 303.225 363.992C303.609 364.664 304.121 365.192 304.761 365.576C305.417 365.944 306.153 366.128 306.969 366.128ZM323.376 355.712C324.56 355.712 325.616 355.976 326.544 356.504C327.472 357.032 328.192 357.768 328.704 358.712C329.232 359.64 329.496 360.704 329.496 361.904C329.496 363.136 329.216 364.232 328.656 365.192C328.112 366.136 327.336 366.872 326.328 367.4C325.336 367.928 324.2 368.192 322.92 368.192C320.76 368.192 319.088 367.456 317.904 365.984C316.736 364.496 316.152 362.408 316.152 359.72C316.152 357.112 316.688 355.072 317.76 353.6C318.832 352.112 320.472 351.128 322.68 350.648L328.488 349.352L328.824 351.464L323.472 352.616C321.808 352.984 320.568 353.608 319.752 354.488C318.936 355.368 318.472 356.632 318.36 358.28C318.904 357.464 319.608 356.832 320.472 356.384C321.336 355.936 322.304 355.712 323.376 355.712ZM322.968 366.272C323.784 366.272 324.504 366.088 325.128 365.72C325.768 365.352 326.264 364.848 326.616 364.208C326.968 363.552 327.144 362.808 327.144 361.976C327.144 360.712 326.76 359.696 325.992 358.928C325.224 358.16 324.216 357.776 322.968 357.776C321.72 357.776 320.704 358.16 319.92 358.928C319.152 359.696 318.768 360.712 318.768 361.976C318.768 362.808 318.944 363.552 319.296 364.208C319.664 364.848 320.168 365.352 320.808 365.72C321.448 366.088 322.168 366.272 322.968 366.272ZM343.787 355.28L337.619 369.272C337.075 370.568 336.435 371.48 335.699 372.008C334.979 372.536 334.107 372.8 333.083 372.8C332.459 372.8 331.851 372.696 331.259 372.488C330.683 372.296 330.203 372.008 329.819 371.624L330.803 369.896C331.459 370.52 332.219 370.832 333.083 370.832C333.643 370.832 334.107 370.68 334.475 370.376C334.859 370.088 335.203 369.584 335.507 368.864L335.915 367.976L330.299 355.28H332.699L337.139 365.456L341.531 355.28H343.787ZM356.298 355.28V368H353.994V362.864C352.618 363.504 351.25 363.824 349.89 363.824C348.306 363.824 347.082 363.456 346.218 362.72C345.354 361.984 344.922 360.88 344.922 359.408V355.28H347.226V359.264C347.226 360.144 347.498 360.808 348.042 361.256C348.602 361.704 349.378 361.928 350.37 361.928C351.49 361.928 352.698 361.648 353.994 361.088V355.28H356.298ZM365.307 355.16C367.067 355.16 368.411 355.592 369.339 356.456C370.283 357.32 370.755 358.608 370.755 360.32V368H368.571V366.32C368.187 366.912 367.635 367.368 366.915 367.688C366.211 367.992 365.371 368.144 364.395 368.144C362.971 368.144 361.827 367.8 360.963 367.112C360.115 366.424 359.691 365.52 359.691 364.4C359.691 363.28 360.099 362.384 360.915 361.712C361.731 361.024 363.027 360.68 364.803 360.68H368.451V360.224C368.451 359.232 368.163 358.472 367.587 357.944C367.011 357.416 366.163 357.152 365.043 357.152C364.291 357.152 363.555 357.28 362.835 357.536C362.115 357.776 361.507 358.104 361.011 358.52L360.051 356.792C360.707 356.264 361.491 355.864 362.403 355.592C363.315 355.304 364.283 355.16 365.307 355.16ZM364.779 366.368C365.659 366.368 366.419 366.176 367.059 365.792C367.699 365.392 368.163 364.832 368.451 364.112V362.336H364.899C362.947 362.336 361.971 362.992 361.971 364.304C361.971 364.944 362.219 365.448 362.715 365.816C363.211 366.184 363.899 366.368 364.779 366.368ZM386.16 355.16C387.392 355.16 388.496 355.44 389.472 356C390.448 356.544 391.216 357.312 391.776 358.304C392.336 359.28 392.616 360.392 392.616 361.64C392.616 362.888 392.336 364.008 391.776 365C391.216 365.976 390.448 366.744 389.472 367.304C388.496 367.864 387.392 368.144 386.16 368.144C385.04 368.144 384.024 367.912 383.112 367.448C382.2 366.984 381.448 366.336 380.856 365.504C380.28 364.656 379.92 363.696 379.776 362.624H377.208V368H374.904V355.28H377.208V360.488H379.8C379.96 359.432 380.328 358.504 380.904 357.704C381.496 356.888 382.24 356.264 383.136 355.832C384.048 355.384 385.056 355.16 386.16 355.16ZM386.16 366.128C386.944 366.128 387.648 365.944 388.272 365.576C388.912 365.208 389.416 364.688 389.784 364.016C390.152 363.328 390.336 362.536 390.336 361.64C390.336 360.76 390.152 359.984 389.784 359.312C389.416 358.624 388.912 358.096 388.272 357.728C387.648 357.36 386.944 357.176 386.16 357.176C385.376 357.176 384.664 357.36 384.024 357.728C383.384 358.096 382.88 358.624 382.512 359.312C382.16 359.984 381.984 360.76 381.984 361.64C381.984 362.536 382.16 363.328 382.512 364.016C382.88 364.688 383.384 365.208 384.024 365.576C384.664 365.944 385.376 366.128 386.16 366.128ZM414.047 355.28V368H395.927V355.28H398.231V365.984H403.847V355.28H406.151V365.984H411.743V355.28H414.047ZM415.943 365.984V370.712H413.783V368H411.647V365.984H415.943ZM418.521 355.28H420.825V364.544L428.625 355.28H430.713V368H428.409V358.736L420.633 368H418.521V355.28ZM435.185 355.28H437.489V364.544L445.289 355.28H447.377V368H445.073V358.736L437.297 368H435.185V355.28ZM441.137 353.624C439.953 353.624 439.033 353.344 438.377 352.784C437.721 352.208 437.385 351.384 437.369 350.312H438.929C438.945 350.904 439.145 351.384 439.529 351.752C439.929 352.104 440.457 352.28 441.113 352.28C441.769 352.28 442.297 352.104 442.697 351.752C443.097 351.384 443.305 350.904 443.321 350.312H444.929C444.913 351.384 444.569 352.208 443.897 352.784C443.225 353.344 442.305 353.624 441.137 353.624ZM471.879 365.984V371.048H469.695V368H458.295V355.28H460.599V365.984H467.559V355.28H469.863V365.984H471.879ZM486.361 361.712C486.361 361.888 486.345 362.12 486.313 362.408H475.993C476.137 363.528 476.625 364.432 477.457 365.12C478.305 365.792 479.353 366.128 480.601 366.128C482.121 366.128 483.345 365.616 484.273 364.592L485.545 366.08C484.969 366.752 484.249 367.264 483.385 367.616C482.537 367.968 481.585 368.144 480.529 368.144C479.185 368.144 477.993 367.872 476.953 367.328C475.913 366.768 475.105 365.992 474.529 365C473.969 364.008 473.689 362.888 473.689 361.64C473.689 360.408 473.961 359.296 474.505 358.304C475.065 357.312 475.825 356.544 476.785 356C477.761 355.44 478.857 355.16 480.073 355.16C481.289 355.16 482.369 355.44 483.313 356C484.273 356.544 485.017 357.312 485.545 358.304C486.089 359.296 486.361 360.432 486.361 361.712ZM480.073 357.104C478.969 357.104 478.041 357.44 477.289 358.112C476.553 358.784 476.121 359.664 475.993 360.752H484.153C484.025 359.68 483.585 358.808 482.833 358.136C482.097 357.448 481.177 357.104 480.073 357.104ZM489.935 355.28H492.239V360.68H499.487V355.28H501.791V368H499.487V362.672H492.239V368H489.935V355.28ZM515.751 357.296H511.095V368H508.791V357.296H504.135V355.28H515.751V357.296ZM524.851 355.16C526.083 355.16 527.187 355.432 528.163 355.976C529.139 356.52 529.899 357.28 530.443 358.256C531.003 359.232 531.283 360.36 531.283 361.64C531.283 362.92 531.003 364.056 530.443 365.048C529.899 366.024 529.139 366.784 528.163 367.328C527.187 367.872 526.083 368.144 524.851 368.144C523.939 368.144 523.099 367.968 522.331 367.616C521.579 367.264 520.939 366.752 520.411 366.08V372.656H518.107V355.28H520.315V357.296C520.827 356.592 521.475 356.064 522.259 355.712C523.043 355.344 523.907 355.16 524.851 355.16ZM524.659 366.128C525.475 366.128 526.203 365.944 526.843 365.576C527.499 365.192 528.011 364.664 528.379 363.992C528.763 363.304 528.955 362.52 528.955 361.64C528.955 360.76 528.763 359.984 528.379 359.312C528.011 358.624 527.499 358.096 526.843 357.728C526.203 357.36 525.475 357.176 524.659 357.176C523.859 357.176 523.131 357.368 522.475 357.752C521.835 358.12 521.323 358.64 520.939 359.312C520.571 359.984 520.387 360.76 520.387 361.64C520.387 362.52 520.571 363.304 520.939 363.992C521.307 364.664 521.819 365.192 522.475 365.576C523.131 365.944 523.859 366.128 524.659 366.128ZM135.016 384.28V397H132.712V386.296H125.536V397H123.232V384.28H135.016ZM144.922 397.144C143.658 397.144 142.522 396.864 141.514 396.304C140.506 395.744 139.714 394.976 139.138 394C138.578 393.008 138.298 391.888 138.298 390.64C138.298 389.392 138.578 388.28 139.138 387.304C139.714 386.312 140.506 385.544 141.514 385C142.522 384.44 143.658 384.16 144.922 384.16C146.186 384.16 147.314 384.44 148.306 385C149.314 385.544 150.098 386.312 150.658 387.304C151.234 388.28 151.522 389.392 151.522 390.64C151.522 391.888 151.234 393.008 150.658 394C150.098 394.976 149.314 395.744 148.306 396.304C147.314 396.864 146.186 397.144 144.922 397.144ZM144.922 395.128C145.738 395.128 146.466 394.944 147.106 394.576C147.762 394.192 148.274 393.664 148.642 392.992C149.01 392.304 149.194 391.52 149.194 390.64C149.194 389.76 149.01 388.984 148.642 388.312C148.274 387.624 147.762 387.096 147.106 386.728C146.466 386.36 145.738 386.176 144.922 386.176C144.106 386.176 143.37 386.36 142.714 386.728C142.074 387.096 141.562 387.624 141.178 388.312C140.81 388.984 140.626 389.76 140.626 390.64C140.626 391.52 140.81 392.304 141.178 392.992C141.562 393.664 142.074 394.192 142.714 394.576C143.37 394.944 144.106 395.128 144.922 395.128ZM173.079 384.28V397H170.775V386.296H163.599V397H161.295V384.28H173.079ZM182.985 397.144C181.721 397.144 180.585 396.864 179.577 396.304C178.569 395.744 177.777 394.976 177.201 394C176.641 393.008 176.361 391.888 176.361 390.64C176.361 389.392 176.641 388.28 177.201 387.304C177.777 386.312 178.569 385.544 179.577 385C180.585 384.44 181.721 384.16 182.985 384.16C184.249 384.16 185.377 384.44 186.369 385C187.377 385.544 188.161 386.312 188.721 387.304C189.297 388.28 189.585 389.392 189.585 390.64C189.585 391.888 189.297 393.008 188.721 394C188.161 394.976 187.377 395.744 186.369 396.304C185.377 396.864 184.249 397.144 182.985 397.144ZM182.985 395.128C183.801 395.128 184.529 394.944 185.169 394.576C185.825 394.192 186.337 393.664 186.705 392.992C187.073 392.304 187.257 391.52 187.257 390.64C187.257 389.76 187.073 388.984 186.705 388.312C186.337 387.624 185.825 387.096 185.169 386.728C184.529 386.36 183.801 386.176 182.985 386.176C182.169 386.176 181.433 386.36 180.777 386.728C180.137 387.096 179.625 387.624 179.241 388.312C178.873 388.984 178.689 389.76 178.689 390.64C178.689 391.52 178.873 392.304 179.241 392.992C179.625 393.664 180.137 394.192 180.777 394.576C181.433 394.944 182.169 395.128 182.985 395.128ZM205.754 394.984V399.952H203.594V397H192.962V399.952H190.778V394.984H191.45C192.266 394.936 192.826 394.36 193.13 393.256C193.434 392.152 193.642 390.592 193.754 388.576L193.946 384.28H203.81V394.984H205.754ZM195.866 388.744C195.802 390.344 195.666 391.672 195.458 392.728C195.266 393.768 194.906 394.52 194.378 394.984H201.506V386.296H195.986L195.866 388.744ZM218.115 386.296H211.059V397H208.755V384.28H218.115V386.296ZM225.36 397.144C224.096 397.144 222.96 396.864 221.952 396.304C220.944 395.744 220.152 394.976 219.576 394C219.016 393.008 218.736 391.888 218.736 390.64C218.736 389.392 219.016 388.28 219.576 387.304C220.152 386.312 220.944 385.544 221.952 385C222.96 384.44 224.096 384.16 225.36 384.16C226.624 384.16 227.752 384.44 228.744 385C229.752 385.544 230.536 386.312 231.096 387.304C231.672 388.28 231.96 389.392 231.96 390.64C231.96 391.888 231.672 393.008 231.096 394C230.536 394.976 229.752 395.744 228.744 396.304C227.752 396.864 226.624 397.144 225.36 397.144ZM225.36 395.128C226.176 395.128 226.904 394.944 227.544 394.576C228.2 394.192 228.712 393.664 229.08 392.992C229.448 392.304 229.632 391.52 229.632 390.64C229.632 389.76 229.448 388.984 229.08 388.312C228.712 387.624 228.2 387.096 227.544 386.728C226.904 386.36 226.176 386.176 225.36 386.176C224.544 386.176 223.808 386.36 223.152 386.728C222.512 387.096 222 387.624 221.616 388.312C221.248 388.984 221.064 389.76 221.064 390.64C221.064 391.52 221.248 392.304 221.616 392.992C222 393.664 222.512 394.192 223.152 394.576C223.808 394.944 224.544 395.128 225.36 395.128ZM244.298 386.296H239.642V397H237.338V386.296H232.682V384.28H244.298V386.296ZM251.539 397.144C250.275 397.144 249.139 396.864 248.131 396.304C247.123 395.744 246.331 394.976 245.755 394C245.195 393.008 244.915 391.888 244.915 390.64C244.915 389.392 245.195 388.28 245.755 387.304C246.331 386.312 247.123 385.544 248.131 385C249.139 384.44 250.275 384.16 251.539 384.16C252.803 384.16 253.931 384.44 254.923 385C255.931 385.544 256.715 386.312 257.275 387.304C257.851 388.28 258.139 389.392 258.139 390.64C258.139 391.888 257.851 393.008 257.275 394C256.715 394.976 255.931 395.744 254.923 396.304C253.931 396.864 252.803 397.144 251.539 397.144ZM251.539 395.128C252.355 395.128 253.083 394.944 253.723 394.576C254.379 394.192 254.891 393.664 255.259 392.992C255.627 392.304 255.811 391.52 255.811 390.64C255.811 389.76 255.627 388.984 255.259 388.312C254.891 387.624 254.379 387.096 253.723 386.728C253.083 386.36 252.355 386.176 251.539 386.176C250.723 386.176 249.987 386.36 249.331 386.728C248.691 387.096 248.179 387.624 247.795 388.312C247.427 388.984 247.243 389.76 247.243 390.64C247.243 391.52 247.427 392.304 247.795 392.992C248.179 393.664 248.691 394.192 249.331 394.576C249.987 394.944 250.723 395.128 251.539 395.128ZM270.13 390.4C271.778 390.816 272.602 391.848 272.602 393.496C272.602 394.616 272.178 395.48 271.33 396.088C270.498 396.696 269.25 397 267.586 397H261.466V384.28H267.37C268.874 384.28 270.05 384.568 270.898 385.144C271.746 385.704 272.17 386.504 272.17 387.544C272.17 388.216 271.986 388.8 271.618 389.296C271.266 389.776 270.77 390.144 270.13 390.4ZM263.722 389.752H267.178C268.058 389.752 268.722 389.592 269.17 389.272C269.634 388.952 269.866 388.488 269.866 387.88C269.866 386.664 268.97 386.056 267.178 386.056H263.722V389.752ZM267.418 395.224C268.378 395.224 269.098 395.072 269.578 394.768C270.058 394.464 270.298 393.992 270.298 393.352C270.298 392.696 270.074 392.208 269.626 391.888C269.194 391.568 268.506 391.408 267.562 391.408H263.722V395.224H267.418ZM281.153 391.624H278.513V397H276.209V384.28H278.513V389.656H281.201L285.329 384.28H287.801L282.977 390.4L288.137 397H285.425L281.153 391.624ZM301.626 390.712C301.626 390.888 301.61 391.12 301.578 391.408H291.258C291.402 392.528 291.89 393.432 292.722 394.12C293.57 394.792 294.618 395.128 295.866 395.128C297.386 395.128 298.61 394.616 299.538 393.592L300.81 395.08C300.234 395.752 299.514 396.264 298.65 396.616C297.802 396.968 296.85 397.144 295.794 397.144C294.45 397.144 293.258 396.872 292.218 396.328C291.178 395.768 290.37 394.992 289.794 394C289.234 393.008 288.954 391.888 288.954 390.64C288.954 389.408 289.226 388.296 289.77 387.304C290.33 386.312 291.09 385.544 292.05 385C293.026 384.44 294.122 384.16 295.338 384.16C296.554 384.16 297.634 384.44 298.578 385C299.538 385.544 300.282 386.312 300.81 387.304C301.354 388.296 301.626 389.432 301.626 390.712ZM295.338 386.104C294.234 386.104 293.306 386.44 292.554 387.112C291.818 387.784 291.386 388.664 291.258 389.752H299.418C299.29 388.68 298.85 387.808 298.098 387.136C297.362 386.448 296.442 386.104 295.338 386.104ZM317.19 397.144C315.894 397.144 314.734 396.864 313.71 396.304C312.702 395.744 311.91 394.976 311.334 394C310.758 393.008 310.47 391.888 310.47 390.64C310.47 389.392 310.758 388.28 311.334 387.304C311.91 386.312 312.702 385.544 313.71 385C314.734 384.44 315.894 384.16 317.19 384.16C318.342 384.16 319.366 384.392 320.262 384.856C321.174 385.32 321.878 385.992 322.374 386.872L320.622 388C320.222 387.392 319.726 386.936 319.134 386.632C318.542 386.328 317.886 386.176 317.166 386.176C316.334 386.176 315.582 386.36 314.91 386.728C314.254 387.096 313.734 387.624 313.35 388.312C312.982 388.984 312.798 389.76 312.798 390.64C312.798 391.536 312.982 392.328 313.35 393.016C313.734 393.688 314.254 394.208 314.91 394.576C315.582 394.944 316.334 395.128 317.166 395.128C317.886 395.128 318.542 394.976 319.134 394.672C319.726 394.368 320.222 393.912 320.622 393.304L322.374 394.408C321.878 395.288 321.174 395.968 320.262 396.448C319.366 396.912 318.342 397.144 317.19 397.144ZM330.618 397.144C329.354 397.144 328.218 396.864 327.21 396.304C326.202 395.744 325.41 394.976 324.834 394C324.274 393.008 323.994 391.888 323.994 390.64C323.994 389.392 324.274 388.28 324.834 387.304C325.41 386.312 326.202 385.544 327.21 385C328.218 384.44 329.354 384.16 330.618 384.16C331.882 384.16 333.01 384.44 334.002 385C335.01 385.544 335.794 386.312 336.354 387.304C336.93 388.28 337.218 389.392 337.218 390.64C337.218 391.888 336.93 393.008 336.354 394C335.794 394.976 335.01 395.744 334.002 396.304C333.01 396.864 331.882 397.144 330.618 397.144ZM330.618 395.128C331.434 395.128 332.162 394.944 332.802 394.576C333.458 394.192 333.97 393.664 334.338 392.992C334.706 392.304 334.89 391.52 334.89 390.64C334.89 389.76 334.706 388.984 334.338 388.312C333.97 387.624 333.458 387.096 332.802 386.728C332.162 386.36 331.434 386.176 330.618 386.176C329.802 386.176 329.066 386.36 328.41 386.728C327.77 387.096 327.258 387.624 326.874 388.312C326.506 388.984 326.322 389.76 326.322 390.64C326.322 391.52 326.506 392.304 326.874 392.992C327.258 393.664 327.77 394.192 328.41 394.576C329.066 394.944 329.802 395.128 330.618 395.128ZM349.556 386.296H344.9V397H342.596V386.296H337.94V384.28H349.556V386.296ZM358.656 384.16C359.888 384.16 360.992 384.432 361.968 384.976C362.944 385.52 363.704 386.28 364.248 387.256C364.808 388.232 365.088 389.36 365.088 390.64C365.088 391.92 364.808 393.056 364.248 394.048C363.704 395.024 362.944 395.784 361.968 396.328C360.992 396.872 359.888 397.144 358.656 397.144C357.744 397.144 356.904 396.968 356.136 396.616C355.384 396.264 354.744 395.752 354.216 395.08V401.656H351.912V384.28H354.12V386.296C354.632 385.592 355.28 385.064 356.064 384.712C356.848 384.344 357.712 384.16 358.656 384.16ZM358.464 395.128C359.28 395.128 360.008 394.944 360.648 394.576C361.304 394.192 361.816 393.664 362.184 392.992C362.568 392.304 362.76 391.52 362.76 390.64C362.76 389.76 362.568 388.984 362.184 388.312C361.816 387.624 361.304 387.096 360.648 386.728C360.008 386.36 359.28 386.176 358.464 386.176C357.664 386.176 356.936 386.368 356.28 386.752C355.64 387.12 355.128 387.64 354.744 388.312C354.376 388.984 354.192 389.76 354.192 390.64C354.192 391.52 354.376 392.304 354.744 392.992C355.112 393.664 355.624 394.192 356.28 394.576C356.936 394.944 357.664 395.128 358.464 395.128ZM379.436 384.28L373.268 398.272C372.724 399.568 372.084 400.48 371.348 401.008C370.628 401.536 369.756 401.8 368.732 401.8C368.108 401.8 367.5 401.696 366.908 401.488C366.332 401.296 365.852 401.008 365.468 400.624L366.452 398.896C367.108 399.52 367.868 399.832 368.732 399.832C369.292 399.832 369.756 399.68 370.124 399.376C370.508 399.088 370.852 398.584 371.156 397.864L371.564 396.976L365.948 384.28H368.348L372.788 394.456L377.18 384.28H379.436ZM394.051 394.984V399.952H391.891V397H381.259V399.952H379.075V394.984H379.747C380.563 394.936 381.123 394.36 381.427 393.256C381.731 392.152 381.939 390.592 382.051 388.576L382.243 384.28H392.107V394.984H394.051ZM384.163 388.744C384.099 390.344 383.963 391.672 383.755 392.728C383.563 393.768 383.203 394.52 382.675 394.984H389.803V386.296H384.283L384.163 388.744ZM397.052 384.28H399.356V389.68H406.604V384.28H408.908V397H406.604V391.672H399.356V397H397.052V384.28ZM413.388 384.28H415.692V393.544L423.492 384.28H425.58V397H423.276V387.736L415.5 397H413.388V384.28ZM434.996 391.624H432.356V397H430.052V384.28H432.356V389.656H435.044L439.172 384.28H441.644L436.82 390.4L441.98 397H439.268L434.996 391.624ZM449.422 397.144C448.158 397.144 447.022 396.864 446.014 396.304C445.006 395.744 444.214 394.976 443.638 394C443.078 393.008 442.798 391.888 442.798 390.64C442.798 389.392 443.078 388.28 443.638 387.304C444.214 386.312 445.006 385.544 446.014 385C447.022 384.44 448.158 384.16 449.422 384.16C450.686 384.16 451.814 384.44 452.806 385C453.814 385.544 454.598 386.312 455.158 387.304C455.734 388.28 456.022 389.392 456.022 390.64C456.022 391.888 455.734 393.008 455.158 394C454.598 394.976 453.814 395.744 452.806 396.304C451.814 396.864 450.686 397.144 449.422 397.144ZM449.422 395.128C450.238 395.128 450.966 394.944 451.606 394.576C452.262 394.192 452.774 393.664 453.142 392.992C453.51 392.304 453.694 391.52 453.694 390.64C453.694 389.76 453.51 388.984 453.142 388.312C452.774 387.624 452.262 387.096 451.606 386.728C450.966 386.36 450.238 386.176 449.422 386.176C448.606 386.176 447.87 386.36 447.214 386.728C446.574 387.096 446.062 387.624 445.678 388.312C445.31 388.984 445.126 389.76 445.126 390.64C445.126 391.52 445.31 392.304 445.678 392.992C446.062 393.664 446.574 394.192 447.214 394.576C447.87 394.944 448.606 395.128 449.422 395.128ZM468.013 390.4C469.661 390.816 470.485 391.848 470.485 393.496C470.485 394.616 470.061 395.48 469.213 396.088C468.381 396.696 467.133 397 465.469 397H459.349V384.28H465.253C466.757 384.28 467.933 384.568 468.781 385.144C469.629 385.704 470.053 386.504 470.053 387.544C470.053 388.216 469.869 388.8 469.501 389.296C469.149 389.776 468.653 390.144 468.013 390.4ZM461.605 389.752H465.061C465.941 389.752 466.605 389.592 467.053 389.272C467.517 388.952 467.749 388.488 467.749 387.88C467.749 386.664 466.853 386.056 465.061 386.056H461.605V389.752ZM465.301 395.224C466.261 395.224 466.981 395.072 467.461 394.768C467.941 394.464 468.181 393.992 468.181 393.352C468.181 392.696 467.957 392.208 467.509 391.888C467.077 391.568 466.389 391.408 465.445 391.408H461.605V395.224H465.301Z" fill="white"/>
<defs>
<clipPath id="clip0_14_15">
<rect width="57" height="50" fill="white" transform="translate(2 235)"/>
</clipPath>
</defs>
</svg>
